<svg width="24" height="24" fill="none" xmlns="http://www.w3.org/2000/svg"><path d="M13 5.333V4.045A.045.045 0 0012.955 4h-1.91a.045.045 0 00-.045.045v3.91c0 .025.02.045.045.045h1.91c.025 0 .045-.02.045-.045V5.333zm-4 6v-1.288A.045.045 0 008.955 10h-1.91a.045.045 0 00-.045.045v3.91c0 .025.02.045.045.045h1.91c.025 0 .045-.02.045-.045v-2.622z" stroke="#595959" stroke-width="1.5" stroke-linecap="round"/><path d="M17 11.333v-1.288a.045.045 0 00-.045-.045h-1.91a.045.045 0 00-.045.045v3.91c0 .025.02.045.045.045h1.91c.025 0 .045-.02.045-.045v-2.622zm-10 6v-1.288A.045.045 0 006.955 16h-1.91a.045.045 0 00-.045.045v3.91c0 .025.02.045.045.045h1.91c.025 0 .045-.02.045-.045v-2.622z" fill="#06F" stroke="#06F" stroke-width="1.5" stroke-linecap="round"/><path d="M19 17.333v-1.288a.045.045 0 00-.045-.045h-1.91a.045.045 0 00-.045.045v3.91c0 .025.02.045.045.045h1.91c.025 0 .045-.02.045-.045v-2.622z" stroke="#595959" stroke-width="1.5" stroke-linecap="round"/></svg>