<svg width="24" height="24" fill="none" xmlns="http://www.w3.org/2000/svg"><path d="M10 13.667v-2.622A.045.045 0 009.955 11h-1.91a.045.045 0 00-.045.045v7.91c0 .025.02.045.045.045h1.91c.025 0 .045-.02.045-.045v-5.288z" fill="#06F" stroke="#06F" stroke-width="1.5" stroke-linecap="round"/><path d="M5 15.667v-1.622A.045.045 0 004.955 14h-1.91a.045.045 0 00-.045.045v4.91c0 .025.02.045.045.045h1.91c.025 0 .045-.02.045-.045v-3.288zm10-4V8.045A.045.045 0 0014.955 8h-1.91a.045.045 0 00-.045.045v10.91c0 .025.02.045.045.045h1.91c.025 0 .045-.02.045-.045v-7.288z" fill="#595959" stroke="#595959" stroke-width="1.5" stroke-linecap="round"/><path d="M20 9.667V5.045A.045.045 0 0019.955 5h-1.91a.045.045 0 00-.045.045v13.91c0 .025.02.045.045.045h1.91c.025 0 .045-.02.045-.045V9.667z" fill="#06F" stroke="#06F" stroke-width="1.5" stroke-linecap="round"/></svg>