<svg width="22" height="22" fill="none" xmlns="http://www.w3.org/2000/svg"><path d="M13.136 2.362l-.747.064v.01l.747-.074zm0 0l.747-.065v-.01l-.747.075zm.066.52l.728-.182-.728.182zm1.981.82l-.386-.643.386.643zm.415-.321l-.461-.592-.007.006-.008.006.476.58zm0 0l.46.592.007-.006.007-.006-.474-.58zm.23-.18l.416.624-.416-.624zm1.584.079l.476-.58-.476.58zm.212.202l-.53.53.53-.53zm.893.893l-.53.53.53-.53zm.203.212l-.58.476.58-.476zm.079 1.584l-.625-.415.625.415zm-.18.23l-.581-.474.58.475zm0 0l.58.476-.58-.475zm-.322.416l.642.386-.642-.386zm.82 1.98l-.181.728.181-.727zm.521.067l.075-.747-.075.747zm.291.035l.148-.735-.148.735zm1.064 1.176l.747-.074-.747.074zm0 1.849l.747.073-.746-.073zM19.93 13.1l.147.736-.147-.736zm-.29.036l.075.746-.075-.746zm0 0l.075.746-.075-.746zm-.52.065l-.18-.728.18.728zm-.82 1.982l.643-.387-.643.387zm.32.414l-.58.475.005.005.576-.48zm.001 0l.58-.475-.004-.005-.576.48zm0 0l-.58.475.58-.475zm.18.23l.625-.415-.625.415zm-.079 1.585l.58.476-.58-.476zm-.202.211l-.53-.53.53.53zm-.893.893l-.53-.53.53.53zm-.212.203l-.476-.58.476.58zm-1.584.08l-.415.624.415-.625zm-.231-.182l.475-.58-.007-.005-.468.585zm0 0l-.475.58.006.006.469-.586zm-.416-.322l.386-.643-.386.643zm-1.98.82l.727.182-.728-.182zm-.067.522l-.746-.075-.001.013.747.062zm0 0l.747.075V19.7l-.747-.063zm-.035.291l-.736-.147.736.148zm-1.176 1.064l-.074-.746.074.747zm-1.85 0l.075-.746-.074.747zM8.9 19.929l.735-.147-.735.147zm-.036-.29l.746-.075-.746.075zm-.066-.521l.728-.181-.728.18zm-1.98-.82l.386.642-.387-.643zm-.416.32l.475.581-.475-.58zm-.23.181l.415.624-.415-.624zm-1.585-.079l.476-.58-.476.58zm-.211-.202l.53-.53-.53.53zm-.893-.894l.53-.53-.007-.007-.523.537zm0 0l-.53.53.006.007.523-.537zm-.203-.211l.58-.476-.58.476zm-.079-1.584l.625.415-.625-.415zm.18-.231l-.58-.475.58.475zm.322-.414l.642.386-.642-.386zM2.882 13.2l-.181.728.18-.728zm-.52-.065l.075-.747h-.001l-.074.747zm0 0l-.074.746.074-.746zm-.29-.036l-.147.736.147-.736zm-1.064-1.176l.746-.074-.746.074zm0-1.849l.746.074-.746-.074zm1.064-1.176l-.148-.735.148.735zm.291-.035l-.06-.748-.014.001.074.747zm0 0l.061.747.014-.001-.075-.746zm.521-.067l.182.728-.182-.728zm.82-1.98l-.642.386.643-.386zm-.32-.415l-.583.473.002.002.58-.475zm0 0l.581-.473-.001-.002-.58.475zm-.181-.23l-.624.415.624-.416zm.079-1.585l-.58-.476.58.476zM4.589 3.28l.476.58-.476-.58zm1.585-.079l.416-.624-.416.624zm.23.18l-.475.58.002.002.473-.582zm0 0l.475-.58-.002-.003-.473.583zm.413.32l.387-.643-.387.643zm1.981-.821l-.727-.18.727.18zm.066-.519l.746.075-.746-.075zm.036-.29l.735.148-.735-.147zm1.176-1.064l.074.746-.074-.746zm1.848 0l-.073.746.073-.746zm1.177 1.064l.735-.147-.735.147zm.782.226l-1.494.129 1.494-.129zm.047.403l-.004-.02a18.42 18.42 0 01-.044-.393l-1.492.15c.025.25.044.465.084.626L13.93 2.7zm.867.36a.583.583 0 01-.867-.36l-1.456.363a2.083 2.083 0 003.096 1.282l-.774-1.286zm.325-.26a17.428 17.428 0 01-.308.248c-.014.01-.02.013-.018.011l.774 1.286c.141-.085.307-.224.502-.383l-.95-1.161zm.015-.011l.92 1.184-.92-1.184zm.275-.213c-.093.062-.186.14-.29.225l.95 1.16c.131-.106.155-.125.172-.136l-.832-1.249zm2.476.124a2.083 2.083 0 00-2.476-.124l.832 1.25a.583.583 0 01.693.034l.951-1.16zm.266.252c-.095-.095-.18-.181-.266-.252l-.951 1.16c.015.012.037.033.156.152l1.061-1.06zm.893.893l-.893-.893-1.06 1.06.893.894 1.06-1.06zm.252.266c-.07-.086-.157-.171-.252-.266l-1.06 1.06c.12.12.14.142.153.158l1.16-.952zm.124 2.476a2.083 2.083 0 00-.124-2.476l-1.16.952c.163.198.177.48.035.693l1.249.83zm-.224.29c.085-.104.162-.197.224-.29l-1.249-.831c-.01.016-.03.04-.136.17l1.16.95zm0 0l-1.162-.95 1.162.95zm-.26.326c0 .002.002-.003.012-.017l.047-.062.2-.247-1.16-.95c-.16.195-.299.361-.384.503l1.285.773zm.36.867a.583.583 0 01-.36-.867l-1.285-.773a2.083 2.083 0 001.282 3.095l.362-1.455zm.414.047a17.486 17.486 0 01-.394-.044l-.02-.003-.363 1.455c.16.04.376.06.628.085l.149-1.493zm.364.047c-.11-.022-.23-.033-.364-.047l-.15 1.493c.169.017.2.02.219.025l.295-1.471zM21.74 10a2.083 2.083 0 00-1.663-1.837l-.296 1.47c.252.051.44.26.466.515L21.74 10zm.01.367c0-.134 0-.255-.01-.367l-1.493.148c.002.02.003.05.003.22h1.5zm0 1.264v-1.264h-1.5v1.264h1.5zm-.01.365c.01-.11.01-.231.01-.365h-1.5c0 .168-.001.199-.003.218l1.493.147zm-1.664 1.838a2.083 2.083 0 001.664-1.838l-1.493-.147a.583.583 0 01-.466.515l.295 1.47zm-.362.047c.133-.013.253-.024.362-.046l-.295-1.471a2.71 2.71 0 01-.217.024l.15 1.493zm0 0l-.15-1.493.15 1.493zm-.413.047l.02-.004.077-.01c.073-.009.17-.019.316-.033l-.15-1.493c-.25.025-.465.045-.625.085l.362 1.455zm-.36.867a.583.583 0 01.36-.867l-.362-1.456a2.083 2.083 0 00-1.282 3.097l1.285-.774zm.26.326a16.461 16.461 0 01-.248-.309l-.011-.017-1.285.774c.085.141.223.307.383.502l1.16-.95zm-.005-.005l-1.152.96 1.152-.96zm.005.005l-1.162.95 1.162-.95zm.224.29c-.062-.093-.14-.186-.224-.29l-1.162.95c.107.13.126.155.137.171l1.249-.831zm-.124 2.475a2.083 2.083 0 00.124-2.475l-1.25.831a.583.583 0 01-.034.693l1.16.951zm-.252.267c.095-.095.181-.18.252-.267l-1.16-.95a3.051 3.051 0 01-.152.156l1.06 1.06zm-.893.893l.893-.893-1.06-1.061-.893.893 1.06 1.06zm-.267.252c.087-.07.172-.157.267-.252l-1.06-1.061c-.12.12-.143.14-.158.153l.951 1.16zm-2.474.124a2.083 2.083 0 002.474-.124l-.95-1.16a.583.583 0 01-.694.035l-.83 1.249zm-.291-.225c.104.085.197.162.29.225l.832-1.25a2.2 2.2 0 01-.172-.136l-.95 1.16zm.006.005l.937-1.171-.937 1.17zm-.334-.265l.018.012.062.047.248.2.95-1.16c-.196-.16-.363-.3-.505-.385l-.773 1.286zm-.866.359a.584.584 0 01.866-.36l.773-1.285a2.083 2.083 0 00-3.094 1.282l1.455.363zm-.048.415a17.385 17.385 0 01.044-.395l.004-.02-1.455-.363c-.04.16-.06.377-.085.628l1.492.15zm.002-.012l-1.495-.125 1.495.125zm-.048.376c.022-.11.033-.23.046-.364l-1.492-.15c-.017.169-.02.2-.025.219l1.47.295zm-1.837 1.663a2.083 2.083 0 001.837-1.663l-1.47-.295a.583.583 0 01-.515.465l.148 1.493zm-.368.01c.135 0 .256 0 .368-.01l-.148-1.493c-.02.002-.05.003-.22.003v1.5zm-1.263 0h1.263v-1.5h-1.263v1.5zm-.366-.01c.111.01.232.01.366.01v-1.5c-.168 0-.199 0-.219-.003l-.147 1.493zm-1.838-1.663c.18.898.926 1.573 1.838 1.663l.147-1.493a.583.583 0 01-.514-.465l-1.47.295zm-.046-.364c.013.134.024.254.046.364l1.471-.295a3.071 3.071 0 01-.025-.218l-1.492.15zm-.048-.414l.004.02.01.077c.01.074.02.172.034.317l1.492-.15c-.025-.25-.044-.466-.084-.627l-1.456.363zm-.866-.359a.583.583 0 01.866.359l1.456-.362a2.083 2.083 0 00-3.095-1.283l.773 1.286zm-.327.26a16.626 16.626 0 01.31-.248l.017-.012-.773-1.286c-.142.086-.308.224-.504.384l.95 1.161zm-.29.223c.093-.062.186-.139.29-.224l-.95-1.16c-.13.106-.155.125-.17.136l.83 1.248zM4.112 19.3c.708.58 1.713.63 2.475.123l-.83-1.248a.583.583 0 01-.694-.035l-.951 1.16zm-.266-.252c.094.095.18.181.266.252l.951-1.16a3.057 3.057 0 01-.157-.153l-1.06 1.061zm-.894-.893l.894.893 1.06-1.06-.893-.894-1.06 1.06zm.007.006l1.047-1.074L2.96 18.16zm-.259-.272c.071.086.157.17.252.266l1.06-1.061a3.09 3.09 0 01-.152-.157l-1.16.952zm-.123-2.476a2.083 2.083 0 00.123 2.476l1.16-.952a.583.583 0 01-.034-.693l-1.249-.831zm.224-.29c-.085.104-.162.197-.224.29l1.249.831c.01-.016.03-.04.136-.171l-1.16-.95zm.259-.326l-.012.017-.047.062c-.045.058-.107.134-.2.247l1.161.95c.16-.195.298-.36.383-.503l-1.285-.773zm-.36-.867c.382.095.562.53.36.867l1.285.773a2.083 2.083 0 00-1.282-3.095L2.7 13.929zm-.412-.047a16.54 16.54 0 01.392.044l.02.003.363-1.455c-.16-.04-.375-.06-.626-.085l-.15 1.493zm0 0l.148-1.493-.147 1.493zm-.363-.046c.11.021.23.033.363.046l.149-1.493a3.063 3.063 0 01-.217-.024l-.295 1.47zM.26 11.996c.09.912.765 1.658 1.664 1.838l.295-1.47a.583.583 0 01-.466-.515l-1.493.147zm-.01-.365c0 .133 0 .254.01.365l1.493-.147a3.058 3.058 0 01-.003-.218H.25zm0-1.264v1.264h1.5v-1.264H.25zM.26 10c-.01.112-.01.233-.01.367h1.5c0-.169.001-.2.003-.22L.26 10zm1.663-1.837A2.083 2.083 0 00.261 10l1.493.148a.583.583 0 01.466-.514l-.296-1.471zm.365-.047c-.134.014-.255.025-.365.047l.296 1.47c.019-.003.05-.007.218-.024l-.15-1.493zm.013-.001l.122 1.495-.122-1.495zm.401-.046l-.02.003a17.386 17.386 0 01-.394.044l.149 1.493c.251-.025.467-.045.628-.085L2.703 8.07zm.36-.867a.583.583 0 01-.36.867l.363 1.455A2.083 2.083 0 004.348 6.43l-1.286.773zm-.26-.326a17.32 17.32 0 01.247.309l.012.017 1.286-.773c-.086-.142-.224-.308-.384-.503l-1.161.95zM2.8 6.875l1.164-.946-1.164.946zm-.222-.288c.062.093.139.186.224.29l1.16-.95a3.066 3.066 0 01-.136-.171l-1.248.83zm.123-2.476a2.083 2.083 0 00-.123 2.476l1.248-.831a.583.583 0 01.035-.694l-1.16-.95zm.252-.266c-.095.095-.18.18-.252.266l1.16.951c.012-.015.033-.037.153-.156l-1.06-1.061zm.894-.894l-.894.894 1.06 1.06.895-.893-1.061-1.06zm.265-.25c-.086.07-.17.156-.265.25l1.06 1.06a3.06 3.06 0 01.157-.151L4.113 2.7zm2.477-.124a2.083 2.083 0 00-2.477.123l.952 1.16a.583.583 0 01.693-.035l.832-1.248zm.289.223c-.104-.085-.196-.161-.29-.223l-.83 1.248c.015.01.04.03.17.136l.95-1.16zm-.002-.002L5.93 3.963l.946-1.165zm.327.26l-.018-.012a17.298 17.298 0 01-.308-.246l-.95 1.161c.195.16.36.297.502.382l.774-1.285zM8.07 2.7a.583.583 0 01-.867.36L6.43 4.342c1.2.723 2.758.078 3.096-1.282l-1.455-.362zm.047-.412a17.292 17.292 0 01-.044.392l-.003.02 1.455.362c.04-.16.06-.375.084-.625l-1.492-.15zm.046-.363c-.022.11-.033.23-.046.363l1.492.149c.017-.168.021-.198.025-.217l-1.47-.295zM10.003.26a2.083 2.083 0 00-1.839 1.664l1.47.295a.585.585 0 01.516-.466L10.003.26zm.365-.01c-.134 0-.254 0-.365.01l.147 1.493c.02-.002.05-.003.218-.003V.25zm1.264 0h-1.264v1.5h1.264V.25zm.366.01c-.111-.01-.232-.01-.366-.01v1.5c.169 0 .2.001.219.003L11.998.26zm1.838 1.664A2.083 2.083 0 0011.998.26l-.147 1.493a.583.583 0 01.514.466l1.47-.295zm.046.363c-.013-.133-.024-.254-.046-.363l-1.47.295c.003.019.007.05.024.217l1.492-.15zM14.25 11A3.25 3.25 0 0111 14.25v1.5A4.75 4.75 0 0015.75 11h-1.5zM11 7.75A3.25 3.25 0 0114.25 11h1.5A4.75 4.75 0 0011 6.25v1.5zM7.75 11A3.25 3.25 0 0111 7.75v-1.5A4.75 4.75 0 006.25 11h1.5zM11 14.25A3.25 3.25 0 017.75 11h-1.5A4.75 4.75 0 0011 15.75v-1.5z" fill="#1D1D20"/></svg>