<svg width="24" height="24" viewBox="0 0 24 24" fill="none" xmlns="http://www.w3.org/2000/svg">
<path d="M10 13.6667V11.045C10 11.0202 9.97985 11 9.955 11H9H8.045C8.02015 11 8 11.0202 8 11.045V13.6667V16.3333V18.955C8 18.9799 8.02015 19 8.045 19H9H9.955C9.97985 19 10 18.9799 10 18.955V16.3333V13.6667Z" fill="#0066FF" stroke="#0066FF" stroke-width="1.5" stroke-linecap="round"/>
<path d="M5 15.6667V14.045C5 14.0202 4.97985 14 4.955 14H4H3.045C3.02015 14 3 14.0202 3 14.045V15.6667V17.3333V18.955C3 18.9799 3.02015 19 3.045 19H4H4.955C4.97985 19 5 18.9799 5 18.955V17.3333V15.6667Z" fill="#595959" stroke="#595959" stroke-width="1.5" stroke-linecap="round"/>
<path d="M15 11.6667V8.04502C15 8.02016 14.9799 8.00002 14.955 8.00002H14H13.045C13.0201 8.00002 13 8.02016 13 8.04502V11.6667V15.3333V18.955C13 18.9799 13.0201 19 13.045 19H14H14.955C14.9799 19 15 18.9799 15 18.955V15.3333V11.6667Z" fill="#595959" stroke="#595959" stroke-width="1.5" stroke-linecap="round"/>
<path d="M20 9.66668V5.04502C20 5.02016 19.9799 5.00002 19.955 5.00002H19H18.045C18.0201 5.00002 18 5.02016 18 5.04502V9.66668V14.3333V18.955C18 18.9799 18.0201 19 18.045 19H19H19.955C19.9799 19 20 18.9799 20 18.955V14.3333V9.66668Z" fill="#0066FF" stroke="#0066FF" stroke-width="1.5" stroke-linecap="round"/>
</svg>
