<svg width="24" height="24" viewBox="0 0 24 24" fill="none" xmlns="http://www.w3.org/2000/svg">
<path d="M13 5.33335V4.04502C13 4.02016 12.9799 4.00002 12.955 4.00002H12H11.045C11.0201 4.00002 11 4.02016 11 4.04502V5.33335V6.66668V7.95502C11 7.97987 11.0201 8.00002 11.045 8.00002H12H12.955C12.9799 8.00002 13 7.97987 13 7.95502V6.66668V5.33335Z" stroke="#595959" stroke-width="1.5" stroke-linecap="round"/>
<path d="M9 11.3333V10.045C9 10.0202 8.97985 10 8.955 10H8H7.045C7.02015 10 7 10.0202 7 10.045V11.3333V12.6667V13.955C7 13.9799 7.02015 14 7.045 14H8H8.955C8.97985 14 9 13.9799 9 13.955V12.6667V11.3333Z" stroke="#595959" stroke-width="1.5" stroke-linecap="round"/>
<path d="M17 11.3333V10.045C17 10.0202 16.9799 10 16.955 10H16H15.045C15.0201 10 15 10.0202 15 10.045V11.3333V12.6667V13.955C15 13.9799 15.0201 14 15.045 14H16H16.955C16.9799 14 17 13.9799 17 13.955V12.6667V11.3333Z" fill="#0066FF" stroke="#0066FF" stroke-width="1.5" stroke-linecap="round"/>
<path d="M7 17.3333V16.045C7 16.0202 6.97985 16 6.955 16H6H5.045C5.02015 16 5 16.0202 5 16.045V17.3333V18.6667V19.955C5 19.9799 5.02015 20 5.045 20H6H6.955C6.97985 20 7 19.9799 7 19.955V18.6667V17.3333Z" fill="#0066FF" stroke="#0066FF" stroke-width="1.5" stroke-linecap="round"/>
<path d="M19 17.3333V16.045C19 16.0202 18.9799 16 18.955 16H18H17.045C17.0201 16 17 16.0202 17 16.045V17.3333V18.6667V19.955C17 19.9799 17.0201 20 17.045 20H18H18.955C18.9799 20 19 19.9799 19 19.955V18.6667V17.3333Z" stroke="#595959" stroke-width="1.5" stroke-linecap="round"/>
</svg>
