<svg width="24" height="24" viewBox="0 0 24 24" fill="none" xmlns="http://www.w3.org/2000/svg">
<path d="M6.5 9.19687H5.045C5.02015 9.19687 5 9.21701 5 9.24187V11.7323V14.2677V16.7582C5 16.783 5.02015 16.8032 5.045 16.8032H6.5M6.5 9.19687H7.955C7.97985 9.19687 8 9.21701 8 9.24187V11.7323V14.2677V16.7582C8 16.783 7.97985 16.8032 7.955 16.8032H6.5M6.5 9.19687V6.00002M6.5 20V16.8032" stroke="#595959" stroke-width="1.5" stroke-linecap="round"/>
<path d="M18.5 13.0551H17.045C17.0201 13.0551 17 13.0753 17 13.1001V14.6851V16.315V17.8999C17 17.9247 17.0201 17.9449 17.045 17.9449H18.5M18.5 13.0551H19.955C19.9799 13.0551 20 13.0753 20 13.1001V14.6851V16.315V17.8999C20 17.9247 19.9799 17.9449 19.955 17.9449H18.5M18.5 13.0551V11M18.5 20V17.9449" stroke="#595959" stroke-width="1.5" stroke-linecap="round"/>
<path d="M14 7.9134V5.78517C14 5.76032 13.9799 5.74017 13.955 5.74017H12.5H11.045C11.0201 5.74017 11 5.76032 11 5.78517V7.9134V10.0866V12.2149C11 12.2397 11.0201 12.2599 11.045 12.2599H12.5H13.955C13.9799 12.2599 14 12.2397 14 12.2149V10.0866V7.9134Z" fill="#0066FF"/>
<path d="M12.5 5.74017H11.045C11.0201 5.74017 11 5.76032 11 5.78517V7.9134V10.0866V12.2149C11 12.2397 11.0201 12.2599 11.045 12.2599H12.5M12.5 5.74017H13.955C13.9799 5.74017 14 5.76032 14 5.78517V7.9134V10.0866V12.2149C14 12.2397 13.9799 12.2599 13.955 12.2599H12.5M12.5 5.74017V3.00002M12.5 15V12.2599" stroke="#0066FF" stroke-width="1.5" stroke-linecap="round"/>
</svg>
