<svg width="24" height="24" viewBox="0 0 24 24" fill="none" xmlns="http://www.w3.org/2000/svg">
<path d="M6.5 9.19685H5.045C5.02015 9.19685 5 9.217 5 9.24185V11.7323V14.2677V16.7581C5 16.783 5.02015 16.8031 5.045 16.8031H6.5M6.5 9.19685H7.955C7.97985 9.19685 8 9.217 8 9.24185V11.7323V14.2677V16.7581C8 16.783 7.97985 16.8031 7.955 16.8031H6.5M6.5 9.19685V6M6.5 20V16.8031" stroke="#595959" stroke-width="1.5" stroke-linecap="round"/>
<path d="M18.5 13.0551H17.045C17.0201 13.0551 17 13.0753 17 13.1001V14.685V16.315V17.8999C17 17.9247 17.0201 17.9449 17.045 17.9449H18.5M18.5 13.0551H19.955C19.9799 13.0551 20 13.0753 20 13.1001V14.685V16.315V17.8999C20 17.9247 19.9799 17.9449 19.955 17.9449H18.5M18.5 13.0551V11M18.5 20V17.9449" stroke="#595959" stroke-width="1.5" stroke-linecap="round"/>
<path d="M14 7.91339V5.78516C14 5.7603 13.9799 5.74016 13.955 5.74016H12.5H11.045C11.0201 5.74016 11 5.7603 11 5.78516V7.91339V10.0866V12.2148C11 12.2397 11.0201 12.2598 11.045 12.2598H12.5H13.955C13.9799 12.2598 14 12.2397 14 12.2148V10.0866V7.91339Z" fill="#0066FF"/>
<path d="M12.5 5.74016H11.045C11.0201 5.74016 11 5.7603 11 5.78516V7.91339V10.0866V12.2148C11 12.2397 11.0201 12.2598 11.045 12.2598H12.5M12.5 5.74016H13.955C13.9799 5.74016 14 5.7603 14 5.78516V7.91339V10.0866V12.2148C14 12.2397 13.9799 12.2598 13.955 12.2598H12.5M12.5 5.74016V3M12.5 15V12.2598" stroke="#0066FF" stroke-width="1.5" stroke-linecap="round"/>
</svg>
