<svg width="16" height="16" viewBox="0 0 16 16" fill="none" xmlns="http://www.w3.org/2000/svg">
<circle cx="8" cy="8" r="8" fill="#E7F1FF"/>
<path d="M7.11145 7.11142C7.11145 6.6205 7.50942 6.22253 8.00034 6.22253V6.22253C8.49126 6.22253 8.88923 6.6205 8.88923 7.11142V11.5559C8.88923 12.0468 8.49126 12.4448 8.00034 12.4448V12.4448C7.50942 12.4448 7.11145 12.0468 7.11145 11.5559V7.11142ZM7.11145 4.44475C7.11145 3.95383 7.50942 3.55586 8.00034 3.55586V3.55586C8.49126 3.55586 8.88923 3.95383 8.88923 4.44475V4.44475C8.88923 4.93567 8.49126 5.33364 8.00034 5.33364V5.33364C7.50942 5.33364 7.11145 4.93567 7.11145 4.44475V4.44475Z" fill="#0066FF"/>
</svg>
