<svg width="22" height="22" viewBox="0 0 22 22" fill="none" xmlns="http://www.w3.org/2000/svg">
<path d="M13.1361 2.36154L12.3888 2.42583L12.3898 2.43617L13.1361 2.36154ZM13.1361 2.36151L13.8834 2.29722L13.8823 2.28687L13.1361 2.36151ZM13.202 2.88154L13.9298 2.70044V2.70044L13.202 2.88154ZM15.1831 3.70216L14.7965 3.05946L14.7965 3.05946L15.1831 3.70216ZM15.5975 3.38103L15.137 2.78901L15.1297 2.7947L15.1225 2.80056L15.5975 3.38103ZM15.5975 3.38101L16.0579 3.97302L16.0652 3.96734L16.0724 3.96148L15.5975 3.38101ZM15.8279 3.20081L16.2435 3.82513V3.82513L15.8279 3.20081ZM17.4124 3.27984L17.8881 2.69998L17.8881 2.69997L17.4124 3.27984ZM17.6237 3.48204L17.0934 4.01237L17.0934 4.01237L17.6237 3.48204ZM18.5171 4.37544L17.9868 4.90577L17.9868 4.90577L18.5171 4.37544ZM18.7195 4.58695L18.1396 5.06257L18.1396 5.06257L18.7195 4.58695ZM18.7985 6.17125L18.1742 5.7557V5.7557L18.7985 6.17125ZM18.6182 6.40185L18.0377 5.92692L18.0372 5.92756L18.6182 6.40185ZM18.6181 6.40192L19.1986 6.87684L19.1991 6.8762L18.6181 6.40192ZM18.2967 6.81669L18.9395 7.20315L18.9395 7.20314L18.2967 6.81669ZM19.1172 8.79755L18.936 9.52532H18.936L19.1172 8.79755ZM19.6381 8.86359L19.7128 8.11731H19.7128L19.6381 8.86359ZM19.9292 8.89921L20.077 8.1639L20.077 8.1639L19.9292 8.89921ZM20.9934 10.0751L21.7398 10.0013V10.0013L20.9934 10.0751ZM20.9935 11.9236L21.7399 11.9971V11.9971L20.9935 11.9236ZM19.9287 13.1002L20.0761 13.8355L20.0761 13.8355L19.9287 13.1002ZM19.639 13.1356L19.7137 13.8819H19.7137L19.639 13.1356ZM19.639 13.1356L19.7136 13.8819L19.639 13.1356ZM19.1199 13.2014L18.9389 12.4735H18.9389L19.1199 13.2014ZM18.2991 15.1829L18.9417 14.7961V14.7961L18.2991 15.1829ZM18.6199 15.5968L18.0394 16.0717L18.0438 16.0769L18.6199 15.5968ZM18.62 15.5968L19.2004 15.1219L19.1961 15.1167L18.62 15.5968ZM18.62 15.5969L18.0395 16.0718V16.0718L18.62 15.5969ZM18.8003 15.8274L19.4246 15.4117L19.4246 15.4117L18.8003 15.8274ZM18.7212 17.4118L19.3011 17.8875L19.3011 17.8875L18.7212 17.4118ZM18.519 17.6232L17.9887 17.0928L17.9887 17.0928L18.519 17.6232ZM17.626 18.5162L17.0957 17.9859L17.0957 17.9859L17.626 18.5162ZM17.4138 18.7192L16.9384 18.1392L16.9384 18.1392L17.4138 18.7192ZM15.8302 18.7982L15.4148 19.4227L15.4148 19.4227L15.8302 18.7982ZM15.5988 18.6173L16.0738 18.0368L16.0673 18.0317L15.5988 18.6173ZM15.5988 18.6173L15.1238 19.1978L15.1302 19.2029L15.5988 18.6173ZM15.1827 18.2948L15.5689 17.6519L15.5689 17.6519L15.1827 18.2948ZM13.2024 19.1151L13.9301 19.2966L13.9301 19.2966L13.2024 19.1151ZM13.1361 19.6372L12.3898 19.5625L12.3887 19.5749L13.1361 19.6372ZM13.1361 19.6372L13.8825 19.7119L13.8835 19.6995L13.1361 19.6372ZM13.1005 19.9285L12.3652 19.7807L12.3652 19.7807L13.1005 19.9285ZM11.9248 20.9925L11.8508 20.2462H11.8508L11.9248 20.9925ZM10.0757 20.9926L10.1495 20.2462L10.1495 20.2462L10.0757 20.9926ZM8.89963 19.9282L9.63495 19.7806L9.63495 19.7806L8.89963 19.9282ZM8.86406 19.6375L9.61034 19.5629L8.86406 19.6375ZM8.79803 19.1167L9.52581 18.9355L9.5258 18.9355L8.79803 19.1167ZM6.81718 18.2962L7.20364 18.939H7.20364L6.81718 18.2962ZM6.40232 18.6177L6.87724 19.1982L6.87725 19.1982L6.40232 18.6177ZM6.1717 18.7981L6.58725 19.4224L6.58726 19.4224L6.1717 18.7981ZM4.58742 18.719L5.06303 18.1391L5.06303 18.1391L4.58742 18.719ZM4.3759 18.5166L4.90623 17.9863L4.90622 17.9863L4.3759 18.5166ZM3.48251 17.6233L4.01288 17.0929L4.00625 17.0864L3.48251 17.6233ZM3.48248 17.6232L2.9521 18.1536L2.95873 18.1601L3.48248 17.6232ZM3.28029 17.4119L3.86016 16.9363L3.86016 16.9363L3.28029 17.4119ZM3.20127 15.8275L3.82559 16.2431L3.82559 16.2431L3.20127 15.8275ZM3.38154 15.5969L2.80107 15.122L2.80107 15.122L3.38154 15.5969ZM3.70255 15.1828L4.3452 15.5694L4.3452 15.5694L3.70255 15.1828ZM2.88187 13.2015L2.70086 13.9293H2.70086L2.88187 13.2015ZM2.36233 13.1356L2.43696 12.3893L2.43604 12.3892L2.36233 13.1356ZM2.3623 13.1356L2.28767 13.8819L2.28859 13.882L2.3623 13.1356ZM2.07235 13.1002L1.92485 13.8355L1.92486 13.8355L2.07235 13.1002ZM1.00765 11.9237L1.75404 11.8501H1.75404L1.00765 11.9237ZM1.00771 10.075L1.75406 10.1489L1.75406 10.1489L1.00771 10.075ZM2.0718 8.89923L1.924 8.16394L1.92399 8.16394L2.0718 8.89923ZM2.36319 8.86357L2.30216 8.11593L2.28856 8.11729L2.36319 8.86357ZM2.36321 8.86357L2.42424 9.6112L2.43784 9.60985L2.36321 8.86357ZM2.88439 8.7975L3.06563 9.52527L2.88439 8.7975ZM3.70488 6.81666L3.06211 7.20311L3.06211 7.20311L3.70488 6.81666ZM3.38337 6.40179L2.80128 6.87473L2.8029 6.87671L3.38337 6.40179ZM3.38336 6.40177L3.96545 5.92883L3.96383 5.92685L3.38336 6.40177ZM3.20302 6.17115L2.57866 6.5867L2.57866 6.5867L3.20302 6.17115ZM3.28203 4.58688L2.70212 4.11127L2.70212 4.11127L3.28203 4.58688ZM4.5888 3.28003L5.06466 3.85974L5.06466 3.85974L4.5888 3.28003ZM6.17398 3.20096L6.58979 2.57678L6.58979 2.57678L6.17398 3.20096ZM6.4036 3.38056L5.92867 3.96103L5.93066 3.96264L6.4036 3.38056ZM6.40361 3.38057L6.87854 2.8001L6.87656 2.79848L6.40361 3.38057ZM6.81668 3.70075L7.20353 3.05822V3.05822L6.81668 3.70075ZM8.79843 2.87989L8.07054 2.69909V2.69909L8.79843 2.87989ZM8.86412 2.36124L9.6104 2.43587L8.86412 2.36124ZM8.89953 2.07164L9.6349 2.21903V2.21903L8.89953 2.07164ZM10.0762 1.00674L10.1497 1.75313L10.1497 1.75313L10.0762 1.00674ZM11.9242 1.00677L11.8506 1.75315L11.9242 1.00677ZM13.1006 2.07135L13.8359 1.9238L13.8359 1.92379L13.1006 2.07135ZM13.8833 2.29726L13.8833 2.29723L12.3888 2.42579L12.3888 2.42582L13.8833 2.29726ZM13.9298 2.70044C13.9303 2.70239 13.9289 2.69704 13.9261 2.68C13.9233 2.66291 13.9198 2.63854 13.9155 2.60304C13.9067 2.52983 13.8969 2.43235 13.8823 2.28692L12.3898 2.43617C12.4149 2.68701 12.4342 2.902 12.4742 3.06264L13.9298 2.70044ZM14.7965 3.05946C14.4604 3.26165 14.0245 3.0811 13.9298 2.70044L12.4742 3.06264C12.8125 4.42212 14.3692 5.06695 15.5697 4.34485L14.7965 3.05946ZM15.1225 2.80056C15.0094 2.89312 14.9335 2.95514 14.8755 3.00065C14.8473 3.02273 14.8277 3.03752 14.8136 3.04764C14.7996 3.05772 14.7948 3.0605 14.7965 3.05946L15.5697 4.34485C15.7115 4.25953 15.8773 4.12115 16.0724 3.9615L15.1225 2.80056ZM15.137 2.78899L15.137 2.78901L16.0579 3.97304L16.0579 3.97302L15.137 2.78899ZM15.4123 2.57649C15.3193 2.63843 15.2263 2.71563 15.1226 2.80054L16.0724 3.96148C16.203 3.85463 16.2273 3.83595 16.2435 3.82513L15.4123 2.57649ZM17.8881 2.69997C17.1797 2.11893 16.1749 2.06881 15.4123 2.57649L16.2435 3.82513C16.4571 3.68298 16.7384 3.69701 16.9367 3.8597L17.8881 2.69997ZM18.154 2.95171C18.0592 2.8569 17.9745 2.77086 17.8881 2.69998L16.9367 3.8597C16.9518 3.87209 16.9741 3.89309 17.0934 4.01237L18.154 2.95171ZM19.0474 3.84511L18.154 2.95171L17.0934 4.01237L17.9868 4.90577L19.0474 3.84511ZM19.2994 4.11134C19.2285 4.02484 19.1423 3.93999 19.0474 3.84511L17.9868 4.90577C18.1062 5.02516 18.1272 5.04745 18.1396 5.06257L19.2994 4.11134ZM19.4229 6.5868C19.9304 5.82424 19.8803 4.81961 19.2994 4.11134L18.1396 5.06257C18.3022 5.26089 18.3163 5.54218 18.1742 5.7557L19.4229 6.5868ZM19.1987 6.87678C19.2836 6.77292 19.3609 6.67993 19.4229 6.5868L18.1742 5.7557C18.1633 5.77198 18.1446 5.79624 18.0377 5.92692L19.1987 6.87678ZM19.1991 6.8762L19.1992 6.87613L18.0372 5.92756L18.0371 5.92763L19.1991 6.8762ZM18.9395 7.20314C18.9384 7.20487 18.9412 7.20008 18.9513 7.18605C18.9614 7.17197 18.9762 7.15229 18.9983 7.12411C19.0439 7.06602 19.1059 6.99009 19.1986 6.87684L18.0377 5.92699C17.8779 6.12229 17.7393 6.28818 17.6539 6.43023L18.9395 7.20314ZM19.2984 8.06978C18.9179 7.97501 18.7374 7.53925 18.9395 7.20315L17.6539 6.43022C16.9322 7.63058 17.5769 9.18687 18.936 9.52532L19.2984 8.06978ZM19.7128 8.11731C19.5671 8.10274 19.4694 8.09293 19.396 8.08406C19.3604 8.07975 19.336 8.0763 19.3189 8.0735C19.3018 8.07071 19.2965 8.06929 19.2984 8.06978L18.936 9.52532C19.0968 9.56538 19.3122 9.58473 19.5635 9.60987L19.7128 8.11731ZM20.077 8.1639C19.9671 8.14184 19.8466 8.13069 19.7128 8.11731L19.5635 9.60987C19.7318 9.6267 19.7623 9.63066 19.7815 9.63451L20.077 8.1639ZM21.7398 10.0013C21.6496 9.08993 20.9749 8.34431 20.077 8.1639L19.7815 9.63451C20.0329 9.68503 20.2218 9.8938 20.2471 10.149L21.7398 10.0013ZM21.7499 10.3682C21.7499 10.2338 21.7508 10.1128 21.7398 10.0013L20.2471 10.149C20.249 10.1685 20.2499 10.1991 20.2499 10.3682H21.7499ZM21.7499 11.6318V10.3682H20.2499V11.6318H21.7499ZM21.7399 11.9971C21.7508 11.8861 21.7499 11.7656 21.7499 11.6318H20.2499C20.2499 11.8001 20.249 11.8306 20.2471 11.85L21.7399 11.9971ZM20.0761 13.8355C20.9747 13.6554 21.65 12.9092 21.7399 11.9971L20.2471 11.85C20.222 12.1054 20.0329 12.3144 19.7813 12.3648L20.0761 13.8355ZM19.7137 13.8819C19.8468 13.8686 19.9668 13.8575 20.0761 13.8355L19.7813 12.3648C19.7621 12.3686 19.7319 12.3726 19.5644 12.3893L19.7137 13.8819ZM19.7136 13.8819L19.7137 13.8819L19.5644 12.3893L19.5644 12.3893L19.7136 13.8819ZM19.3008 13.9292C19.2988 13.9297 19.3042 13.9283 19.3212 13.9255C19.3383 13.9227 19.3626 13.9193 19.398 13.915C19.4711 13.9062 19.5684 13.8964 19.7136 13.8819L19.5644 12.3893C19.3139 12.4144 19.0993 12.4337 18.9389 12.4735L19.3008 13.9292ZM18.9417 14.7961C18.7394 14.4599 18.92 14.0239 19.3008 13.9292L18.9389 12.4735C17.579 12.8116 16.9339 14.3689 17.6565 15.5696L18.9417 14.7961ZM19.2004 15.1218C19.1079 15.0088 19.0459 14.933 19.0005 14.875C18.9784 14.8469 18.9636 14.8272 18.9535 14.8132C18.9434 14.7992 18.9407 14.7944 18.9417 14.7961L17.6565 15.5696C17.7417 15.7112 17.8799 15.8767 18.0395 16.0717L19.2004 15.1218ZM19.1961 15.1167L19.1961 15.1166L18.0438 16.0769L18.0438 16.0769L19.1961 15.1167ZM19.2005 15.1219L19.2004 15.1219L18.0395 16.0717L18.0395 16.0718L19.2005 15.1219ZM19.4246 15.4117C19.3626 15.3187 19.2854 15.2258 19.2005 15.1219L18.0395 16.0718C18.1464 16.2024 18.1651 16.2267 18.1759 16.243L19.4246 15.4117ZM19.3011 17.8875C19.8821 17.1792 19.9323 16.1744 19.4246 15.4117L18.1759 16.243C18.3181 16.4565 18.3041 16.7378 18.1414 16.9362L19.3011 17.8875ZM19.0494 18.1535C19.1442 18.0587 19.2302 17.9739 19.3011 17.8875L18.1414 16.9362C18.129 16.9513 18.108 16.9736 17.9887 17.0928L19.0494 18.1535ZM18.1563 19.0465L19.0494 18.1535L17.9887 17.0928L17.0957 17.9859L18.1563 19.0465ZM17.8892 19.2993C17.976 19.2281 18.0611 19.1417 18.1563 19.0465L17.0957 17.9859C16.9759 18.1056 16.9535 18.1267 16.9384 18.1392L17.8892 19.2993ZM15.4148 19.4227C16.1771 19.9297 17.1811 19.8796 17.8892 19.2993L16.9384 18.1392C16.7401 18.3017 16.459 18.3157 16.2455 18.1737L15.4148 19.4227ZM15.1239 19.1978C15.2281 19.283 15.3214 19.3605 15.4148 19.4227L16.2455 18.1737C16.2292 18.1629 16.2049 18.1441 16.0737 18.0368L15.1239 19.1978ZM15.1302 19.2029L15.1303 19.203L16.0673 18.0317L16.0673 18.0316L15.1302 19.2029ZM14.7964 18.9377C14.7947 18.9367 14.7995 18.9395 14.8136 18.9496C14.8277 18.9598 14.8475 18.9746 14.8757 18.9968C14.934 19.0425 15.0102 19.1048 15.1238 19.1977L16.0737 18.0368C15.8777 17.8765 15.7113 17.7375 15.5689 17.6519L14.7964 18.9377ZM13.9301 19.2966C14.0249 18.9163 14.4604 18.7359 14.7964 18.9377L15.5689 17.6519C14.3688 16.931 12.8135 17.5753 12.4747 18.9336L13.9301 19.2966ZM13.8824 19.7118C13.897 19.5658 13.9068 19.4679 13.9157 19.3944C13.9201 19.3588 13.9235 19.3343 13.9263 19.3171C13.9291 19.3 13.9306 19.2947 13.9301 19.2966L12.4747 18.9336C12.4344 19.0948 12.415 19.3107 12.3899 19.5625L13.8824 19.7118ZM13.8835 19.6995L13.8835 19.6995L12.3887 19.5749L12.3887 19.575L13.8835 19.6995ZM13.8358 20.0764C13.8579 19.9664 13.869 19.8457 13.8824 19.7119L12.3899 19.5626C12.373 19.731 12.3691 19.7615 12.3652 19.7807L13.8358 20.0764ZM11.9987 21.7389C12.9099 21.6486 13.6553 20.974 13.8358 20.0764L12.3652 19.7807C12.3147 20.032 12.1059 20.2209 11.8508 20.2462L11.9987 21.7389ZM11.6313 21.749C11.7659 21.749 11.8871 21.7499 11.9987 21.7389L11.8508 20.2462C11.8313 20.2481 11.8006 20.249 11.6313 20.249V21.749ZM10.3685 21.749H11.6313V20.249H10.3685V21.749ZM10.0019 21.7389C10.1133 21.7499 10.2342 21.749 10.3685 21.749V20.249C10.1996 20.249 10.169 20.2481 10.1495 20.2462L10.0019 21.7389ZM8.16431 20.0759C8.34467 20.9739 9.09041 21.6488 10.0019 21.7389L10.1495 20.2462C9.89425 20.221 9.68545 20.032 9.63495 19.7806L8.16431 20.0759ZM8.11778 19.7121C8.13114 19.8457 8.14228 19.9662 8.16431 20.0759L9.63495 19.7806C9.6311 19.7614 9.62715 19.731 9.61034 19.5629L8.11778 19.7121ZM8.07026 19.2979C8.06977 19.296 8.0712 19.3013 8.07399 19.3184C8.07678 19.3355 8.08023 19.3599 8.08454 19.3955C8.09341 19.4688 8.10321 19.5665 8.11778 19.7121L9.61034 19.5629C9.58521 19.3116 9.56586 19.0963 9.52581 18.9355L8.07026 19.2979ZM7.20364 18.939C7.53974 18.7369 7.97549 18.9174 8.07026 19.2979L9.5258 18.9355C9.18735 17.5764 7.63107 16.9318 6.43073 17.6534L7.20364 18.939ZM6.87725 19.1982C6.99051 19.1055 7.06647 19.0434 7.12458 18.9979C7.15276 18.9758 7.17245 18.9609 7.18653 18.9508C7.20057 18.9407 7.20536 18.9379 7.20364 18.939L6.43073 17.6534C6.28866 17.7389 6.12275 17.8774 5.92739 18.0373L6.87725 19.1982ZM6.58726 19.4224C6.68038 19.3604 6.77337 19.2832 6.87724 19.1982L5.92739 18.0372C5.79671 18.1442 5.77243 18.1629 5.75614 18.1737L6.58726 19.4224ZM4.11181 19.2989C4.82008 19.8798 5.82469 19.9299 6.58725 19.4224L5.75616 18.1737C5.54264 18.3158 5.26135 18.3018 5.06303 18.1391L4.11181 19.2989ZM3.84556 19.047C3.94045 19.1419 4.02531 19.228 4.11181 19.2989L5.06303 18.1391C5.04791 18.1267 5.02562 18.1057 4.90623 17.9863L3.84556 19.047ZM2.95218 18.1536L3.84557 19.047L4.90622 17.9863L4.01284 17.0929L2.95218 18.1536ZM2.95873 18.1601L2.95876 18.1601L4.00625 17.0864L4.00622 17.0864L2.95873 18.1601ZM2.70042 17.8876C2.77131 17.974 2.85736 18.0588 2.95214 18.1536L4.01282 17.0929C3.89353 16.9736 3.87255 16.9514 3.86016 16.9363L2.70042 17.8876ZM2.57695 15.4119C2.06928 16.1745 2.11939 17.1793 2.70043 17.8876L3.86016 16.9363C3.69747 16.7379 3.68344 16.4566 3.82559 16.2431L2.57695 15.4119ZM2.80107 15.122C2.71611 15.2258 2.63889 15.3188 2.57695 15.4119L3.82559 16.2431C3.83641 16.2268 3.85511 16.2025 3.96201 16.0719L2.80107 15.122ZM3.05991 14.7961C3.06095 14.7944 3.05818 14.7992 3.04809 14.8132C3.03797 14.8272 3.02318 14.8469 3.00111 14.875C2.95561 14.9331 2.8936 15.0089 2.80107 15.122L3.962 16.0719C4.12161 15.8768 4.25993 15.7112 4.3452 15.5694L3.05991 14.7961ZM2.70086 13.9293C3.08158 14.024 3.26217 14.4599 3.05991 14.7961L4.3452 15.5694C5.06755 14.3688 4.4226 12.8118 3.06288 12.4736L2.70086 13.9293ZM2.2877 13.8819C2.433 13.8964 2.53039 13.9062 2.60354 13.9151C2.63902 13.9193 2.66336 13.9228 2.68044 13.9256C2.69746 13.9284 2.70281 13.9298 2.70086 13.9293L3.06288 12.4736C2.90238 12.4337 2.68756 12.4144 2.43696 12.3893L2.2877 13.8819ZM2.28859 13.882L2.28861 13.882L2.43604 12.3892L2.43602 12.3892L2.28859 13.882ZM1.92486 13.8355C2.0343 13.8575 2.15443 13.8686 2.28767 13.8819L2.43693 12.3893C2.26929 12.3726 2.23897 12.3686 2.21984 12.3648L1.92486 13.8355ZM0.261273 11.9973C0.351184 12.9092 1.0264 13.6553 1.92485 13.8355L2.21984 12.3648C1.96827 12.3143 1.77921 12.1054 1.75404 11.8501L0.261273 11.9973ZM0.251221 11.6316C0.251221 11.7655 0.250321 11.8862 0.261274 11.9973L1.75404 11.8501C1.75212 11.8307 1.75122 11.8001 1.75122 11.6316H0.251221ZM0.251221 10.3683V11.6316H1.75122V10.3683H0.251221ZM0.26136 10.0011C0.250313 10.1127 0.251221 10.2338 0.251221 10.3683H1.75122C1.75122 10.1991 1.75213 10.1684 1.75406 10.1489L0.26136 10.0011ZM1.92399 8.16394C1.02625 8.34439 0.351591 9.08989 0.26136 10.0011L1.75406 10.1489C1.77932 9.89379 1.96823 9.68505 2.2196 9.63452L1.92399 8.16394ZM2.28856 8.11729C2.15464 8.13068 2.03391 8.14184 1.924 8.16394L2.21959 9.63452C2.2388 9.63066 2.2693 9.6267 2.43783 9.60985L2.28856 8.11729ZM2.30219 8.11605L2.30217 8.11606L2.42421 9.61108L2.42423 9.61108L2.30219 8.11605ZM2.70314 8.06973C2.70512 8.06924 2.69976 8.07066 2.68267 8.07345C2.66553 8.07625 2.6411 8.07971 2.6055 8.08402C2.53211 8.0929 2.43437 8.10271 2.28858 8.11729L2.43784 9.60985C2.68929 9.5847 2.90477 9.56533 3.06563 9.52527L2.70314 8.06973ZM3.06211 7.20311C3.26418 7.53921 3.08368 7.97496 2.70314 8.06973L3.06563 9.52527C4.42471 9.18681 5.06933 7.63055 4.34765 6.43021L3.06211 7.20311ZM2.8029 6.87671C2.89558 6.98999 2.95767 7.06594 3.00323 7.12405C3.02533 7.15223 3.04014 7.17192 3.05027 7.18601C3.06036 7.20004 3.06314 7.20484 3.06211 7.20311L4.34765 6.43021C4.26224 6.28814 4.12368 6.12222 3.96383 5.92686L2.8029 6.87671ZM2.80127 6.87472L2.80128 6.87473L3.96545 5.92884L3.96544 5.92883L2.80127 6.87472ZM2.57866 6.5867C2.64065 6.67983 2.71791 6.77283 2.80289 6.8767L3.96383 5.92685C3.8569 5.79616 3.83821 5.77188 3.82737 5.7556L2.57866 6.5867ZM2.70212 4.11127C2.12124 4.81954 2.07113 5.82414 2.57866 6.5867L3.82737 5.75561C3.68527 5.54209 3.6993 5.2608 3.86194 5.06249L2.70212 4.11127ZM2.9541 3.84501C2.8592 3.93991 2.77307 4.02476 2.70212 4.11127L3.86194 5.06249C3.87434 5.04736 3.89536 5.02507 4.01476 4.90567L2.9541 3.84501ZM3.84786 2.95125L2.9541 3.84501L4.01476 4.90567L4.90852 4.01191L3.84786 2.95125ZM4.11295 2.70032C4.02685 2.77099 3.94235 2.85676 3.84786 2.95125L4.90852 4.01191C5.02741 3.89302 5.04961 3.87209 5.06466 3.85974L4.11295 2.70032ZM6.58979 2.57678C5.82691 2.06858 4.82148 2.11872 4.11295 2.70032L5.06466 3.85974C5.26305 3.69689 5.54457 3.68285 5.75817 3.82515L6.58979 2.57678ZM6.87853 2.80009C6.77511 2.71547 6.6825 2.63854 6.58979 2.57678L5.75817 3.82515C5.77438 3.83594 5.79855 3.85456 5.92867 3.96103L6.87853 2.80009ZM6.87656 2.79848L6.87655 2.79847L5.93066 3.96264L5.93067 3.96265L6.87656 2.79848ZM7.20353 3.05822C7.20525 3.05925 7.20047 3.05648 7.1865 3.04643C7.17248 3.03634 7.15288 3.02159 7.12482 2.99958C7.06696 2.95421 6.99133 2.89238 6.87854 2.8001L5.92868 3.96104C6.12322 4.1202 6.28843 4.25815 6.42983 4.34329L7.20353 3.05822ZM8.07054 2.69909C7.97594 3.07998 7.53976 3.26065 7.20353 3.05822L6.42983 4.34329C7.63065 5.06626 9.18842 4.42101 9.52631 3.06068L8.07054 2.69909ZM8.11784 2.28662C8.10334 2.43167 8.09357 2.52891 8.08474 2.60193C8.08046 2.63735 8.07703 2.66166 8.07425 2.67871C8.07147 2.69571 8.07006 2.70104 8.07054 2.69909L9.52631 3.06068C9.5661 2.90049 9.58538 2.68606 9.6104 2.43587L8.11784 2.28662ZM8.16415 1.92425C8.14225 2.03355 8.13115 2.15353 8.11784 2.28662L9.6104 2.43587C9.62714 2.26842 9.63107 2.23813 9.6349 2.21903L8.16415 1.92425ZM10.0027 0.260352C9.09059 0.350155 8.34427 1.02556 8.16415 1.92425L9.6349 2.21903C9.68534 1.96739 9.8943 1.77828 10.1497 1.75313L10.0027 0.260352ZM10.3678 0.250328C10.2341 0.250328 10.1137 0.24943 10.0027 0.260352L10.1497 1.75313C10.1691 1.75123 10.1996 1.75033 10.3678 1.75033V0.250328ZM11.6319 0.250328H10.3678V1.75033H11.6319V0.250328ZM11.9979 0.260398C11.8867 0.249426 11.766 0.250328 11.6319 0.250328V1.75033C11.8006 1.75033 11.8311 1.75123 11.8506 1.75315L11.9979 0.260398ZM13.8359 1.92379C13.6557 1.02548 12.9097 0.350371 11.9979 0.260398L11.8506 1.75315C12.1059 1.77834 12.3148 1.96737 12.3652 2.2189L13.8359 1.92379ZM13.8823 2.28687C13.869 2.15355 13.8579 2.03333 13.8359 1.9238L12.3652 2.2189C12.3691 2.23804 12.373 2.26837 12.3898 2.43615L13.8823 2.28687ZM14.2498 10.9996C14.2498 12.7944 12.7948 14.2493 11 14.2493V15.7493C13.6232 15.7493 15.7498 13.6228 15.7498 10.9996H14.2498ZM11 7.74985C12.7948 7.74985 14.2498 9.2048 14.2498 10.9996H15.7498C15.7498 8.37638 13.6232 6.24985 11 6.24985V7.74985ZM7.75028 10.9996C7.75028 9.2048 9.20524 7.74985 11 7.74985V6.24985C8.37681 6.24985 6.25028 8.37638 6.25028 10.9996H7.75028ZM11 14.2493C9.20524 14.2493 7.75028 12.7944 7.75028 10.9996H6.25028C6.25028 13.6228 8.37681 15.7493 11 15.7493V14.2493Z" fill="#1D1D20"/>
</svg>
