<?xml version="1.0" standalone="no"?>
<!DOCTYPE svg PUBLIC "-//W3C//DTD SVG 1.1//EN" "http://www.w3.org/Graphics/SVG/1.1/DTD/svg11.dtd" >
<svg xmlns="http://www.w3.org/2000/svg" xmlns:xlink="http://www.w3.org/1999/xlink" version="1.1">
<metadata></metadata>
<defs>
<font id="simplerpro_leumi_hmedium" horiz-adv-x="1071" >
<font-face units-per-em="2048" ascent="1638" descent="-410" />
<missing-glyph horiz-adv-x="462" />
<glyph horiz-adv-x="0" />
<glyph horiz-adv-x="682" />
<glyph unicode=" "  horiz-adv-x="462" />
<glyph unicode="&#x09;" horiz-adv-x="462" />
<glyph unicode="&#xa0;" horiz-adv-x="462" />
<glyph unicode="!" horiz-adv-x="569" d="M133 117q0 61 44 106t108 45q63 0 107 -45t44 -106q0 -63 -44 -107.5t-107 -44.5t-107.5 44t-44.5 108zM152 979v334h254v-336l-58 -578h-141z" />
<glyph unicode="&#x22;" horiz-adv-x="800" d="M29 866l147 475h295l-309 -475h-133zM412 866l186 475h293l-340 -475h-139z" />
<glyph unicode="#" horiz-adv-x="1425" d="M139 274v154h277v293h-277v149h277v277h155v-277h285v277h156v-277h274v-149h-274v-293h274v-154h-274v-274h-156v274h-285v-274h-155v274h-277zM571 428h285v293h-285v-293z" />
<glyph unicode="$" horiz-adv-x="999" d="M86 829q0 147 92 243.5t252 119.5v211h139v-207q166 -12 287 -84v-229q-63 51 -138 82.5t-149 40.5v-324l21 -4q154 -39 238.5 -111.5t84.5 -212.5q0 -150 -92 -248t-252 -124v-197h-139v188q-88 2 -173 26t-155 64l2 240q66 -59 152 -95t174 -42v330l-8 2 q-158 41 -247 115.5t-89 215.5zM305 860q0 -55 33 -88t92 -53v282q-125 -33 -125 -141zM569 176q59 16 92 54t33 92q0 53 -31.5 84.5t-93.5 52.5v-283z" />
<glyph unicode="%" horiz-adv-x="1253" d="M80 973q0 96 67.5 161.5t163.5 65.5t162 -65.5t66 -161.5q0 -92 -66.5 -157.5t-161.5 -65.5q-96 0 -163.5 65.5t-67.5 157.5zM135 0l821 1176h172l-819 -1176h-174zM213 973q0 -39 29.5 -67.5t68.5 -28.5t67 27.5t28 68.5t-28 70.5t-67 29.5q-43 0 -70.5 -28.5 t-27.5 -71.5zM715 203q0 94 66.5 158.5t162.5 64.5t163 -64.5t67 -158.5t-68 -160t-162 -66t-161.5 66t-67.5 160zM848 203q0 -41 28.5 -71t67.5 -30q41 0 68.5 29t27.5 72q0 39 -28.5 67.5t-67.5 28.5t-67.5 -27.5t-28.5 -68.5z" />
<glyph unicode="&#x26;" horiz-adv-x="1536" d="M117 367q0 131 72.5 227t201.5 180q-68 86 -102.5 164t-34.5 164q0 109 52 194.5t145.5 134t212.5 48.5q162 0 260 -85t98 -227q0 -119 -78 -214t-250 -208q127 -135 320 -333q133 117 360 342v-269q-123 -125 -225 -217l260 -268h-289l-131 135q-111 -80 -216 -120 t-214 -40q-121 0 -222 50.5t-160.5 139.5t-59.5 202zM332 385q0 -98 71.5 -157.5t178.5 -59.5q68 0 132 25.5t140 85.5l-80 83q-96 102 -260 273q-88 -51 -135 -109.5t-47 -140.5zM463 1112q0 -57 25.5 -109.5t84.5 -119.5q121 74 179.5 134t58.5 132q0 66 -45 107.5 t-121 41.5q-84 0 -133 -51t-49 -135z" />
<glyph unicode="'" horiz-adv-x="380" d="M29 866l147 475h295l-309 -475h-133z" />
<glyph unicode="(" horiz-adv-x="724" d="M111 559q0 264 121.5 516t324.5 400h150q-193 -213 -274 -437.5t-81 -478.5t81 -477t274 -438h-150q-203 149 -324.5 401t-121.5 514z" />
<glyph unicode=")" horiz-adv-x="724" d="M18 -356q193 215 274 438t81 477t-81 478.5t-274 437.5h150q203 -147 324.5 -400.5t121.5 -515.5t-121.5 -514t-324.5 -401h-150z" />
<glyph unicode="*" horiz-adv-x="995" d="M72 1065l59 184l281 -112l-23 309h191l-21 -313l283 116l57 -186l-287 -76l191 -242l-154 -112l-162 268l-163 -270l-154 112l195 244z" />
<glyph unicode="+" horiz-adv-x="1392" d="M158 494v188h440v440h197v-440h440v-188h-440v-439h-197v439h-440z" />
<glyph unicode="," horiz-adv-x="567" d="M84 -195l106 428h267l-211 -428h-162z" />
<glyph unicode="-" d="M164 506v192h743v-192h-743z" />
<glyph unicode="." horiz-adv-x="577" d="M129 123q0 61 44 106t108 45q63 0 107 -45t44 -106q0 -63 -44 -107.5t-107 -44.5q-64 0 -108 44t-44 108z" />
<glyph unicode="/" horiz-adv-x="948" d="M61 0l627 1176h199l-627 -1176h-199z" />
<glyph unicode="0" horiz-adv-x="1155" d="M115 567q0 301 123.5 467t349.5 166q221 0 336.5 -152.5t115.5 -445.5q0 -299 -123.5 -465t-349.5 -166q-221 0 -336.5 152.5t-115.5 443.5zM344 584q0 -201 59.5 -307.5t171.5 -106.5q115 0 174.5 106.5t59.5 309.5t-59.5 309t-174.5 106q-113 0 -172 -107.5t-59 -309.5 z" />
<glyph unicode="1" horiz-adv-x="743" d="M104 821v162q207 -2 269 193h184v-1176h-235v821h-218z" />
<glyph unicode="2" horiz-adv-x="944" d="M68 815q-2 174 112.5 279.5t302.5 105.5q172 0 274.5 -86t102.5 -229q0 -90 -45 -178.5t-153 -208.5l-267 -303h445v-195h-748v164l449 508q53 61 75.5 105t22.5 89q0 63 -47 102.5t-125 39.5q-86 0 -134 -52.5t-46 -140.5h-219z" />
<glyph unicode="3" horiz-adv-x="870" d="M51 12v207q106 -55 221 -55q137 0 217 63.5t80 171.5q0 86 -50 135.5t-138 49.5q-80 0 -143 -41l-33 180l227 266h-369v187h650v-154l-234 -262q61 -6 111 -27q92 -37 145 -122t53 -197q0 -127 -65.5 -227.5t-181 -157t-265.5 -56.5q-129 0 -225 39z" />
<glyph unicode="4" horiz-adv-x="1052" d="M68 240v174l444 762h254l-436 -748h305v201h219v-201h123v-188h-123v-240h-219v240h-567z" />
<glyph unicode="5" horiz-adv-x="897" d="M61 25l15 198q100 -61 233 -61q129 0 208 64.5t79 170.5q0 84 -49 135.5t-133 51.5q-90 0 -158 -64l-150 66l44 590h606v-187h-412l-20 -239q59 18 127 18q166 0 264 -96.5t98 -259.5q0 -127 -64.5 -227.5t-179 -157t-264.5 -56.5q-142 1 -244 54z" />
<glyph unicode="6" horiz-adv-x="1005" d="M96 348q0 98 40 201.5t143 261.5q92 143 243 363h252l-31 -44q-37 -51 -132 -186t-162 -242q57 14 106 15q164 0 264.5 -97.5t100.5 -252.5q0 -117 -53.5 -207t-148.5 -139.5t-218 -49.5q-183 0 -293.5 103.5t-110.5 273.5zM309 346q0 -90 53.5 -142t143.5 -52t145.5 55 t55.5 145t-52.5 143.5t-140.5 53.5q-92 0 -148.5 -56.5t-56.5 -146.5z" />
<glyph unicode="7" horiz-adv-x="839" d="M53 981v195h778v-179q-172 -170 -257 -308t-115.5 -292.5t-26.5 -396.5h-233q-2 217 28.5 380t105.5 308.5t210 292.5h-490z" />
<glyph unicode="8" horiz-adv-x="1038" d="M92 317q0 94 44 171t126 124q-63 39 -98 104.5t-35 147.5q0 150 110.5 243t288.5 93q176 0 280.5 -87t104.5 -230q0 -80 -34.5 -145.5t-100.5 -108.5q82 -47 127 -123t45 -172q0 -106 -55 -188.5t-155.5 -128.5t-229.5 -46q-193 0 -305.5 94.5t-112.5 251.5zM317 332 q0 -86 53.5 -135.5t147.5 -49.5q96 0 151.5 50.5t55.5 138.5q0 86 -54.5 135t-148.5 49t-149.5 -50t-55.5 -138zM348 858q0 -76 45 -118t125 -42q82 0 128 43t46 121q0 76 -45 118t-125 42q-84 0 -129 -43t-45 -121z" />
<glyph unicode="9" horiz-adv-x="1003" d="M94 807q0 117 53.5 207t148.5 139t218 49q182 0 293 -102.5t111 -272.5q0 -100 -40 -203.5t-143 -261.5q-55 -86 -203 -301q-12 -20 -40 -61h-252l30 43q37 51 132.5 186.5t162.5 241.5q-57 -14 -106 -14q-164 0 -264.5 97t-100.5 253zM307 821q0 -90 52.5 -143 t140.5 -53q92 0 148.5 56t56.5 146t-53.5 142.5t-143.5 52.5t-145.5 -55.5t-55.5 -145.5z" />
<glyph unicode=":" horiz-adv-x="610" d="M168 0v272h274v-272h-274zM168 784v275h274v-275h-274z" />
<glyph unicode=";" horiz-adv-x="632" d="M82 -195l115 428h266l-219 -428h-162zM193 784v275h272v-275h-272z" />
<glyph unicode="&#x3c;" horiz-adv-x="1032" d="M137 588l619 618l139 -141l-483 -479l483 -484l-139 -135z" />
<glyph unicode="=" horiz-adv-x="1421" d="M176 270v183h1069v-183h-1069zM176 713v184h1069v-184h-1069z" />
<glyph unicode="&#x3e;" horiz-adv-x="1032" d="M137 1065l139 141l619 -618l-619 -621l-137 135l482 484z" />
<glyph unicode="@" horiz-adv-x="1968" d="M180 731q0 231 107.5 419.5t295 296t416.5 107.5q221 0 401.5 -102t283 -281.5t102.5 -400.5q0 -127 -43 -225.5t-120 -151.5t-179 -53q-84 0 -157 45t-99 117q-43 -78 -117 -120t-168 -42q-119 0 -192.5 65.5t-73.5 167.5q0 92 55.5 147.5t177.5 84.5l156 35 q61 14 84 30.5t23 49.5q0 49 -40 78.5t-106 29.5q-70 0 -109.5 -32.5t-41.5 -90.5h-164q14 113 103 183.5t220 70.5q139 0 222 -77.5t83 -211.5v-198q0 -92 43 -144.5t117 -52.5q78 0 121 75t45 208q0 180 -84 327.5t-229.5 232.5t-323.5 85q-182 0 -330.5 -86 t-232.5 -236.5t-84 -335.5q0 -180 84 -327.5t229.5 -231.5t323.5 -84q188 0 321 82v-168q-166 -68 -333 -67q-222 0 -402 102.5t-282.5 281.5t-102.5 398zM797 582q0 -52 35.5 -80.5t99.5 -28.5q92 0 147.5 61.5t55.5 163.5v43l-207 -43q-131 -25 -131 -116z" />
<glyph unicode="A" horiz-adv-x="1454" d="M25 0l555 1446h303l547 -1446h-261l-133 360h-624l-133 -360h-254zM485 565h476l-236 645z" />
<glyph unicode="B" horiz-adv-x="1251" d="M174 0v1446h504q193 0 306.5 -95.5t113.5 -258.5q0 -94 -39 -171t-111 -130q113 -45 171.5 -133.5t58.5 -211.5q0 -131 -64.5 -232t-181.5 -157.5t-266 -56.5h-492zM410 199h268q119 0 188.5 61.5t69.5 167.5q0 102 -67.5 161.5t-180.5 59.5h-278v-450zM410 844h219 q106 0 169.5 56t63.5 153q0 90 -61.5 143t-163.5 53h-227v-405z" />
<glyph unicode="C" horiz-adv-x="1323" d="M96 705q0 227 95.5 402t267.5 271.5t395 96.5q205 0 363 -82v-258q-142 120 -359 120h-4q-156 0 -271.5 -66.5t-178 -188t-62.5 -283.5q0 -160 62.5 -279t177 -183.5t268.5 -64.5q207 0 352 111v-238q-164 -90 -383 -90q-217 0 -381 90.5t-253 255t-89 386.5z" />
<glyph unicode="D" horiz-adv-x="1550" d="M174 0v1446h553q217 0 382 -84t255 -240.5t90 -365.5q0 -223 -100.5 -394.5t-281.5 -266.5t-415 -95h-483zM416 217h266q158 0 276.5 64.5t183 182.5t64.5 271q0 227 -136 359.5t-368 132.5h-286v-1010z" />
<glyph unicode="E" horiz-adv-x="1079" d="M174 0v1446h787v-219h-547v-367h495v-215h-495v-426h547v-219h-787z" />
<glyph unicode="F" horiz-adv-x="1032" d="M174 0v1446h766v-219h-526v-402h475v-215h-475v-610h-240z" />
<glyph unicode="G" horiz-adv-x="1511" d="M96 702q0 227 99.5 402.5t280.5 272t417 96.5q272 0 455 -125v-267q-82 86 -202 132.5t-261 46.5q-254 0 -401.5 -145.5t-147.5 -395.5q0 -246 144.5 -388.5t391.5 -142.5q154 0 281 58v319h-229v209h458v-643q-109 -78 -241.5 -118t-282.5 -40q-229 0 -402 89.5 t-266.5 254t-93.5 385.5z" />
<glyph unicode="H" horiz-adv-x="1560" d="M174 0v1446h242v-584h729v584h241v-1446h-241v643h-729v-643h-242z" />
<glyph unicode="I" horiz-adv-x="600" d="M178 0v1446h244v-1446h-244z" />
<glyph unicode="J" horiz-adv-x="690" d="M29 8v213q57 -39 125 -39q59 0 89.5 35t30.5 105v1124h242v-1137q0 -152 -88 -244t-238 -92q-85 0 -161 35z" />
<glyph unicode="K" horiz-adv-x="1271" d="M174 0v1446h240v-674l565 674h287l-600 -709l579 -737h-305l-526 672v-672h-240z" />
<glyph unicode="L" horiz-adv-x="1009" d="M174 0v1446h242v-1227h532v-219h-774z" />
<glyph unicode="M" horiz-adv-x="2023" d="M94 0l197 1446h313l412 -1198l407 1198h314l192 -1446h-235l-158 1159l-395 -1165h-279l-395 1153l-152 -1147h-221z" />
<glyph unicode="N" horiz-adv-x="1607" d="M174 0v1446h254l782 -1098v1098h224v-1446h-256l-781 1096v-1096h-223z" />
<glyph unicode="O" horiz-adv-x="1673" d="M96 705q0 227 95.5 402t267.5 271.5t395 96.5q215 0 379 -89.5t254 -254t90 -388.5q0 -227 -95.5 -402t-267.5 -271.5t-395 -96.5q-215 0 -379 89.5t-254 254t-90 388.5zM342 717q0 -242 132 -383t360 -141q152 0 264 66.5t172.5 187t60.5 282.5q0 160 -60.5 278.5 t-171 182t-259.5 63.5q-152 0 -264.5 -66.5t-173 -187t-60.5 -282.5z" />
<glyph unicode="P" horiz-adv-x="1140" d="M174 0v1446h436q207 0 333 -116t126 -312q0 -139 -64.5 -245.5t-180 -166t-267.5 -59.5h-143v-547h-240zM414 754h139q123 0 197.5 69.5t74.5 182.5q0 106 -69.5 170.5t-184.5 64.5h-157v-487z" />
<glyph unicode="Q" horiz-adv-x="1705" d="M96 705q0 227 95.5 402t267.5 271.5t395 96.5q215 0 379 -89.5t254 -254t90 -388.5q0 -281 -139 -473l264 -270h-313l-113 106q-190 -133 -457 -133q-215 0 -379 89.5t-254 254t-90 388.5zM342 717q0 -242 132 -383t360 -141q152 0 264 66.5t172.5 187t60.5 282.5 q0 160 -60.5 278.5t-171 182t-259.5 63.5q-152 0 -264.5 -66.5t-173 -187t-60.5 -282.5z" />
<glyph unicode="R" horiz-adv-x="1185" d="M174 0v1446h471q201 0 323 -107.5t122 -291.5q0 -162 -97.5 -275t-261.5 -147l445 -625h-291l-418 606h-55v-606h-238zM412 803h174q119 0 190.5 63.5t71.5 165.5q0 98 -65.5 155.5t-176.5 57.5h-194v-442z" />
<glyph unicode="S" horiz-adv-x="1153" d="M96 80v256q92 -76 205 -116t223 -40q137 0 218 58.5t81 158.5q0 63 -39 104.5t-97 64t-161 50.5q-135 37 -221 75t-147.5 117t-61.5 214t63.5 237.5t179.5 158t269 55.5q100 0 201.5 -27t189.5 -76v-248q-88 70 -190 106t-211 36q-125 0 -194.5 -54.5t-69.5 -152.5 q0 -66 39 -108t98 -64.5t164 -50.5q135 -37 220 -75t145.5 -117t60.5 -210q0 -135 -69.5 -239.5t-195.5 -162t-290 -57.5q-111 0 -217.5 28t-192.5 79z" />
<glyph unicode="T" horiz-adv-x="1118" d="M55 1227v219h1008v-219h-383v-1227h-242v1227h-383z" />
<glyph unicode="U" horiz-adv-x="1478" d="M164 539v907h242l2 -899q0 -158 87 -254t242 -96q154 0 244 97t90 261l2 891h242v-875q0 -176 -75 -313t-208 -212t-307 -75q-166 0 -293 70t-197.5 198t-70.5 300z" />
<glyph unicode="V" horiz-adv-x="1363" d="M33 1446h262l395 -1204l391 1204h250l-491 -1446h-316z" />
<glyph unicode="W" horiz-adv-x="2148" d="M33 1446h252l338 -1157l313 1157h293l321 -1155l338 1155h228l-433 -1446h-286l-326 1178l-315 -1178h-289z" />
<glyph unicode="X" horiz-adv-x="1343" d="M10 0l516 762l-463 684h289l318 -471l319 471h271l-455 -672l522 -774h-289l-379 561l-378 -561h-271z" />
<glyph unicode="Y" horiz-adv-x="1282" d="M25 1446h278l348 -572l340 572h262l-489 -805v-641h-244v641z" />
<glyph unicode="Z" horiz-adv-x="1181" d="M92 0v180l692 1047h-675v219h970v-180l-694 -1047h690v-219h-983z" />
<glyph unicode="[" horiz-adv-x="659" d="M139 -356v1831h490v-179h-295v-1474h295v-178h-490z" />
<glyph unicode="\" horiz-adv-x="1005" d="M18 1446h199l770 -1446h-199z" />
<glyph unicode="]" horiz-adv-x="659" d="M31 -178h295v1474h-295v179h489v-1831h-489v178z" />
<glyph unicode="^" horiz-adv-x="1447" d="M188 627l418 819h234l420 -819h-232l-305 598l-305 -598h-230z" />
<glyph unicode="_" horiz-adv-x="1157" d="M53 0h1051v-178h-1051v178z" />
<glyph unicode="`" horiz-adv-x="1212" d="M274 1532h277l151 -295h-127z" />
<glyph unicode="a" horiz-adv-x="1126" d="M84 283q0 127 79 205.5t243 113.5l215 47q82 18 112.5 43t30.5 70q0 66 -55.5 105.5t-143.5 39.5q-94 0 -148.5 -45t-56.5 -123h-227q20 156 142 252t303 96q193 0 306 -105t113 -284v-698l-110 -2l-107 121q-61 -72 -150 -110t-194 -38q-162 0 -257 84t-95 228zM307 297 q0 -70 49.5 -110t132.5 -40q125 0 202 86t77 226v57l-281 -57q-92 -20 -136 -59.5t-44 -102.5z" />
<glyph unicode="b" horiz-adv-x="1273" d="M158 0v1556h233v-604q123 135 318 135q139 0 247.5 -68.5t168 -193.5t59.5 -284q0 -166 -63.5 -295t-177.5 -201t-261 -72q-98 0 -180 33t-142 96l-100 -102h-102zM385 528q0 -161 77 -259.5t204 -98.5q129 0 205.5 98.5t76.5 261.5q0 162 -76.5 260.5t-203.5 98.5 q-129 0 -206 -98.5t-77 -262.5z" />
<glyph unicode="c" horiz-adv-x="1036" d="M94 514q0 170 69.5 299t196.5 200.5t293 71.5q150 0 275 -57v-233q-109 90 -262 90q-154 0 -245 -98.5t-91 -262.5q0 -162 92 -256t248 -94q72 0 139.5 20.5t118.5 59.5v-211q-129 -70 -299 -70q-158 0 -279 65.5t-188.5 188.5t-67.5 287z" />
<glyph unicode="d" horiz-adv-x="1273" d="M94 520q0 164 63.5 293t176 200.5t260.5 71.5q172 0 291 -100v571h235v-1556h-108l-109 117q-61 -70 -147 -108t-187 -38q-139 0 -247.5 69t-168 193.5t-59.5 286.5zM330 530q0 -163 76.5 -261.5t205.5 -98.5q127 0 204 98.5t77 259.5q0 164 -77 262.5t-206 98.5 q-127 0 -203.5 -97.5t-76.5 -261.5z" />
<glyph unicode="e" horiz-adv-x="1200" d="M94 516q0 170 65.5 300t184.5 202t272 72q147 0 259 -67t173.5 -188.5t61.5 -287.5q0 -57 -4 -86h-793q12 -137 88 -216t199 -79q88 0 153.5 41t94.5 112h229q-55 -162 -182 -254t-303 -92q-150 0 -262.5 66.5t-174 189.5t-61.5 287zM317 631h570q-10 123 -87 194.5 t-196 71.5q-121 0 -197.5 -71.5t-89.5 -194.5z" />
<glyph unicode="f" horiz-adv-x="745" d="M66 864v195h127v201q0 147 91 236t244 89q106 0 179 -29v-206q-68 34 -136 34h-4q-66 0 -103.5 -35.5t-37.5 -99.5v-190h268v-195h-268v-864h-233v864h-127z" />
<glyph unicode="g" horiz-adv-x="1179" d="M94 692q0 117 58.5 205t164 137t246.5 49q63 0 142 -10q106 -12 186 -12h252v-187h-189q41 -72 41 -165q0 -117 -58 -206t-162.5 -138.5t-239.5 -49.5q-115 0 -205 37q-14 -37 -15 -78q0 -51 31 -73.5t103 -32.5q63 -8 190 -14q188 -8 291.5 -68.5t103.5 -212.5 q0 -178 -140 -268t-378 -90q-106 0 -209.5 18t-181.5 51v211q74 -45 192.5 -73.5t229.5 -28.5q117 0 187.5 35.5t70.5 115.5q0 39 -23.5 60.5t-79.5 32.5q-47 12 -196 20q-123 8 -202 27.5t-125 68.5t-46 140q0 117 86 223q-59 49 -92 119.5t-33 156.5zM311 698 q0 -98 62.5 -154.5t169.5 -56.5q109 0 172 58.5t63 156.5q0 96 -62.5 153.5t-168.5 57.5q-109 0 -172.5 -59t-63.5 -156z" />
<glyph unicode="h" horiz-adv-x="1230" d="M158 0v1556h233v-645q45 84 130 130t196 46q174 0 277.5 -111.5t103.5 -297.5v-678h-234v639q0 115 -62.5 182.5t-166.5 67.5q-113 0 -178.5 -82t-65.5 -225v-582h-233z" />
<glyph unicode="i" horiz-adv-x="581" d="M168 1247v211h246v-211h-246zM172 0v1059h238v-1059h-238z" />
<glyph unicode="j" horiz-adv-x="552" d="M-57 -266q53 -27 106 -27q57 0 87 32t30 93v1227h237v-1225q0 -150 -86 -238t-229 -88q-67 1 -145 21v205zM156 1247v211h247v-211h-247z" />
<glyph unicode="k" horiz-adv-x="1132" d="M158 0v1556h235v-987l412 490h274l-438 -518l461 -541h-297l-412 487v-487h-235z" />
<glyph unicode="l" horiz-adv-x="550" d="M158 0v1556h235v-1556h-235z" />
<glyph unicode="m" horiz-adv-x="1894" d="M158 0v1059h129l119 -129q47 78 121.5 117.5t174.5 39.5q119 0 208 -57t132 -162q37 102 128.5 160.5t215.5 58.5q170 0 272.5 -111.5t102.5 -297.5v-678h-233v639q0 113 -60.5 181.5t-162.5 68.5q-106 0 -168 -82t-62 -225v-582h-231v639q0 113 -60.5 181.5t-162.5 68.5 q-106 0 -168 -82t-62 -225v-582h-233z" />
<glyph unicode="n" horiz-adv-x="1230" d="M158 0v1059h131l119 -129q47 76 128.5 116.5t182.5 40.5q172 0 275.5 -111.5t103.5 -297.5v-678h-234v639q0 115 -62.5 182.5t-166.5 67.5q-113 0 -178.5 -82t-65.5 -225v-582h-233z" />
<glyph unicode="o" horiz-adv-x="1298" d="M94 516q0 170 72 299t201 200.5t297 71.5q162 0 285.5 -66.5t191 -189t67.5 -286.5q0 -170 -71.5 -299t-200.5 -201t-297 -72q-164 0 -287 66.5t-190.5 189.5t-67.5 287zM328 526q0 -161 87 -257.5t232 -96.5q150 0 239 98.5t89 264.5q0 162 -87 257t-235 95 q-150 0 -237.5 -98.5t-87.5 -262.5z" />
<glyph unicode="p" horiz-adv-x="1273" d="M158 -471v1530h108l109 -115q61 70 146 106.5t188 36.5q139 0 247.5 -68.5t168 -192.5t59.5 -285q0 -166 -64.5 -295t-179.5 -201t-262 -72q-164 0 -287 101v-545h-233zM385 530q0 -163 77 -260.5t206 -97.5q127 0 203.5 97.5t76.5 260.5q0 164 -76.5 262.5t-205.5 98.5 q-127 0 -204 -98.5t-77 -262.5z" />
<glyph unicode="q" horiz-adv-x="1273" d="M94 520q0 164 63.5 293t176 200.5t260.5 71.5q205 0 324 -129l100 103h102v-1530h-235v577q-60 -65 -139.5 -100t-176.5 -35q-139 0 -247.5 69t-168 193.5t-59.5 286.5zM330 528q0 -161 76.5 -259.5t203.5 -98.5q129 0 206 98.5t77 261.5q0 162 -78 260.5t-205 98.5 t-203.5 -98.5t-76.5 -262.5z" />
<glyph unicode="r" horiz-adv-x="782" d="M158 0v1059h168l73 -131q41 76 107.5 115.5t152.5 39.5q51 0 91 -12v-244q-55 39 -127 39q-106 0 -168 -78.5t-62 -216.5v-571h-235z" />
<glyph unicode="s" horiz-adv-x="950" d="M106 745q0 160 109 251t291 91q166 0 319 -79v-230q-74 57 -164 89t-167 32q-76 0 -121 -32.5t-45 -92.5q0 -63 50 -91t159 -56q51 -10 94 -25q123 -37 183 -102.5t60 -177.5q0 -164 -113.5 -256.5t-305.5 -92.5q-90 0 -179.5 21.5t-164.5 62.5v232q86 -61 181 -96 t181 -35q82 0 130 33.5t48 93.5q0 66 -52 94.5t-161 54.5q-31 6 -88 23q-125 37 -184.5 106.5t-59.5 181.5z" />
<glyph unicode="t" horiz-adv-x="780" d="M45 866v185h66q47 0 74.5 27.5t27.5 74.5v172h219v-266h262v-193h-262v-557q0 -68 40 -104.5t114 -36.5q70 0 125 27v-195q-90 -29 -179 -29q-153 0 -243 87t-90 237v571h-154z" />
<glyph unicode="u" horiz-adv-x="1200" d="M141 420v639h234v-635q0 -113 62.5 -178.5t164.5 -65.5t164.5 67.5t62.5 180.5v631h234v-613q0 -141 -59.5 -248.5t-167 -167t-246.5 -59.5q-133 0 -234.5 54.5t-158 156t-56.5 238.5z" />
<glyph unicode="v" horiz-adv-x="1069" d="M12 1059h244l287 -797l282 797h228l-396 -1059h-251z" />
<glyph unicode="w" horiz-adv-x="1722" d="M12 1059h236l246 -807l237 807h270l252 -807l244 807h209l-338 -1059h-254l-258 831l-246 -831h-256z" />
<glyph unicode="x" horiz-adv-x="1122" d="M6 0l420 561l-369 498h281l229 -311l234 311h258l-363 -484l426 -575h-280l-287 387l-291 -387h-258z" />
<glyph unicode="y" horiz-adv-x="1085" d="M12 1059h242l309 -770l283 770h223l-588 -1530h-213l178 473z" />
<glyph unicode="z" horiz-adv-x="974" d="M88 0v154l520 712h-516v193h793v-152l-520 -714h516v-193h-793z" />
<glyph unicode="{" horiz-adv-x="806" d="M96 461v196q113 6 167 76t54 230v159q0 184 77 268.5t261 84.5h74v-183h-45q-80 0 -113.5 -19.5t-43 -70.5t-11.5 -170q-2 -152 -14.5 -230.5t-50 -132t-121.5 -110.5q84 -55 121.5 -109.5t50 -133t14.5 -230.5q2 -119 12.5 -170t44 -70.5t111.5 -19.5h45v-182h-74 q-184 0 -261 84t-77 268v160q0 160 -54 229.5t-167 75.5z" />
<glyph unicode="|" horiz-adv-x="980" d="M393 -471v2027h195v-2027h-195z" />
<glyph unicode="}" horiz-adv-x="786" d="M66 -174h45q78 0 111.5 19.5t43.5 70.5t13 170q2 152 14 230.5t50 133t122 109.5q-84 55 -122 109.5t-50 133.5t-14 230q-2 119 -12.5 170t-44.5 70.5t-111 19.5h-45v183h73q184 0 261 -84t77 -269v-159q0 -160 54.5 -229.5t166.5 -76.5v-196q-113 -6 -167 -76t-54 -229 v-160q0 -184 -76.5 -268t-261.5 -84h-73v182z" />
<glyph unicode="~" horiz-adv-x="1519" d="M205 410v215q92 76 163.5 109.5t145.5 33.5q66 0 127 -20.5t145 -61.5q80 -37 133.5 -55.5t108.5 -18.5q66 0 130.5 34t156.5 116v-211q-145 -143 -295 -143q-76 0 -140.5 21.5t-156.5 62.5q-76 35 -128 53t-103 18q-61 0 -125 -34.5t-162 -118.5z" />
<glyph unicode="&#xa2;" horiz-adv-x="1077" d="M109 569q0 227 122.5 380t329.5 186v268h139v-260q129 -6 242 -60v-233q-49 41 -111.5 64.5t-130.5 27.5v-711q150 6 242 78v-211q-111 -59 -242 -67v-246h-139v248q-209 25 -330.5 167t-121.5 369zM344 582q0 -127 57.5 -213t159.5 -119v674q-102 -33 -159.5 -124 t-57.5 -218z" />
<glyph unicode="&#xa3;" horiz-adv-x="1110" d="M82 471v199h176v133q0 178 110.5 286.5t297.5 108.5q168 0 290 -80v-233q-49 47 -122.5 74.5t-145.5 27.5q-98 0 -149.5 -52t-51.5 -142v-123h353v-199h-353v-262h547v-209h-776v471h-176z" />
<glyph unicode="&#xa5;" horiz-adv-x="1181" d="M70 1176h256l276 -445l266 445h244l-326 -527h250v-151h-331v-146h331v-151h-331v-201h-224v201h-336v151h336v146h-336v151h254z" />
<glyph unicode="&#xa8;" horiz-adv-x="1204" d="M264 1382q0 58 40 98t97 40q55 0 96.5 -40t41.5 -98q0 -55 -41 -95t-97 -40q-57 0 -97 40t-40 95zM692 1382q0 57 41 97.5t96 40.5q57 0 97.5 -40t40.5 -98q0 -55 -40 -95t-98 -40q-55 0 -96 40t-41 95z" />
<glyph unicode="&#xa9;" horiz-adv-x="1980" d="M176 731q0 231 107.5 419.5t295 296t416.5 107.5q221 0 401.5 -101t283 -280.5t102.5 -398.5q0 -231 -107.5 -419.5t-295 -297t-416.5 -108.5q-222 0 -402 102.5t-282.5 280.5t-102.5 399zM336 745q0 -180 84 -327.5t229.5 -231.5t323.5 -84q182 0 330.5 86t232.5 235.5 t84 334.5q0 182 -83 329.5t-228.5 231.5t-325.5 84q-182 0 -329.5 -86t-232.5 -236.5t-85 -335.5zM600 741q0 123 52.5 218.5t145.5 148.5t214 53q113 0 200 -47v-164q-37 33 -88 49.5t-108 16.5q-117 0 -185.5 -72t-68.5 -194q0 -121 68.5 -192t185.5 -71q115 0 196 60 v-150q-96 -53 -219 -53q-176 0 -284.5 108.5t-108.5 288.5z" />
<glyph unicode="&#xab;" horiz-adv-x="1429" d="M164 530l319 441h258l-315 -441l315 -442h-258zM688 530l318 441h260l-318 -441l318 -442h-260z" />
<glyph unicode="&#xad;" d="M164 506v192h743v-192h-743z" />
<glyph unicode="&#xae;" horiz-adv-x="1957" d="M176 733q0 229 107.5 417.5t294 296t415.5 107.5q223 0 402.5 -102t283 -280.5t103.5 -399.5q0 -229 -107.5 -417.5t-295 -297t-416.5 -108.5q-222 0 -402 102.5t-282.5 281.5t-102.5 400zM336 745q0 -180 83 -327.5t228.5 -231.5t325.5 -84q182 0 329.5 86t232.5 235.5 t85 334.5q0 182 -83 329.5t-228.5 231.5t-325.5 84t-328.5 -86t-233.5 -236.5t-85 -335.5zM737 367v788h262q113 0 180.5 -61.5t67.5 -163.5q0 -86 -49 -146.5t-133 -83.5l242 -333h-187l-219 319h-10v-319h-154zM891 815h80q57 0 92 29.5t35 79.5q0 47 -32 73.5t-85 26.5 h-90v-209z" />
<glyph unicode="&#xb4;" horiz-adv-x="1212" d="M559 1237l152 295h276l-301 -295h-127z" />
<glyph unicode="&#xb8;" horiz-adv-x="1212" d="M336 -432l55 123q113 -53 197 -53q45 0 68.5 18t23.5 51q0 59 -76 60q-66 0 -121 -35l-49 65l107 234h174l-88 -148q25 0 45 -2q82 -4 129 -46t47 -114q0 -92 -76 -150t-199 -58q-102 0 -237 55z" />
<glyph unicode="&#xbb;" horiz-adv-x="1398" d="M164 100l305 430l-305 428h252l309 -428l-309 -430h-252zM674 100l305 430l-305 428h252l309 -428l-309 -430h-252z" />
<glyph unicode="&#x2c6;" horiz-adv-x="1202" d="M246 1237l256 295h233l248 -295h-219l-146 172l-153 -172h-219z" />
<glyph unicode="&#x2da;" horiz-adv-x="1214" d="M397 1407q0 88 64.5 151.5t152.5 63.5t152.5 -63.5t64.5 -151.5q0 -90 -64.5 -154.5t-152.5 -64.5t-152.5 65.5t-64.5 153.5zM526 1407q0 -37 26 -61.5t62 -24.5q37 0 62.5 24.5t25.5 61.5t-25.5 61.5t-62.5 24.5t-62.5 -24.5t-25.5 -61.5z" />
<glyph unicode="&#x2dc;" horiz-adv-x="1204" d="M250 1247q12 125 69.5 193.5t147.5 68.5q39 0 76 -13t94 -42q86 -49 137 -49q76 0 96 104h109q-8 -127 -64.5 -196.5t-148.5 -69.5q-39 0 -80 14.5t-96 40.5q-49 25 -81 36.5t-58 11.5q-35 0 -62 -27t-35 -72h-104z" />
<glyph unicode="&#x2000;" horiz-adv-x="811" />
<glyph unicode="&#x2001;" horiz-adv-x="1622" />
<glyph unicode="&#x2002;" horiz-adv-x="811" />
<glyph unicode="&#x2003;" horiz-adv-x="1622" />
<glyph unicode="&#x2004;" horiz-adv-x="540" />
<glyph unicode="&#x2005;" horiz-adv-x="405" />
<glyph unicode="&#x2006;" horiz-adv-x="270" />
<glyph unicode="&#x2007;" horiz-adv-x="270" />
<glyph unicode="&#x2008;" horiz-adv-x="202" />
<glyph unicode="&#x2009;" horiz-adv-x="324" />
<glyph unicode="&#x200a;" horiz-adv-x="90" />
<glyph unicode="&#x2010;" d="M164 506v192h743v-192h-743z" />
<glyph unicode="&#x2011;" d="M164 506v192h743v-192h-743z" />
<glyph unicode="&#x2012;" d="M164 506v192h743v-192h-743z" />
<glyph unicode="&#x2013;" horiz-adv-x="1505" d="M131 508v188h1243v-188h-1243z" />
<glyph unicode="&#x2014;" horiz-adv-x="2246" d="M152 506v192h1943v-192h-1943z" />
<glyph unicode="&#x2018;" horiz-adv-x="450" d="M8 866l309 475h134l-150 -475h-293z" />
<glyph unicode="&#x2019;" horiz-adv-x="380" d="M29 866l147 475h295l-309 -475h-133z" />
<glyph unicode="&#x201a;" horiz-adv-x="520" d="M37 -262l147 475h295l-309 -475h-133z" />
<glyph unicode="&#x201c;" horiz-adv-x="870" d="M8 866l340 475h137l-184 -475h-293zM428 866l309 475h133l-149 -475h-293z" />
<glyph unicode="&#x201d;" horiz-adv-x="800" d="M29 866l147 475h295l-309 -475h-133zM412 866l186 475h293l-340 -475h-139z" />
<glyph unicode="&#x201e;" horiz-adv-x="940" d="M37 -262l147 475h295l-309 -475h-133zM420 -262l186 475h293l-340 -475h-139z" />
<glyph unicode="&#x2026;" horiz-adv-x="1869" d="M145 141q0 62 44 106t108 44q63 0 107.5 -44t44.5 -106q0 -63 -44.5 -107t-107.5 -44t-107.5 44t-44.5 107zM782 141q0 62 44 106t108 44q63 0 108 -44t45 -106q0 -63 -45 -107t-108 -44t-107.5 44t-44.5 107zM1419 141q0 61 45 105.5t109 44.5q63 0 107 -44t44 -106 q0 -63 -44 -107t-107 -44q-64 0 -109 44t-45 107z" />
<glyph unicode="&#x202f;" horiz-adv-x="324" />
<glyph unicode="&#x2039;" horiz-adv-x="888" d="M164 530l309 428h252l-305 -428l305 -430h-252z" />
<glyph unicode="&#x203a;" horiz-adv-x="888" d="M164 100l305 430l-305 428h252l309 -428l-309 -430h-252z" />
<glyph unicode="&#x205f;" horiz-adv-x="405" />
<glyph unicode="&#x20ac;" horiz-adv-x="1267" d="M82 367l61 151h117l-2 51q0 41 2 62h-178l61 151h146q61 193 225 304.5t393 111.5q170 0 291 -59l-74 -185q-90 45 -213 45q-135 0 -232 -56t-144 -161h524l-62 -151h-501q-2 -16 -2 -49q0 -23 4 -64h465l-60 -151h-360q49 -94 143 -145.5t223 -51.5q121 0 219 47v-203 q-117 -41 -251 -41q-222 0 -377.5 104.5t-212.5 289.5h-205z" />
<glyph unicode="&#x2122;" horiz-adv-x="2004" d="M125 1321v125h577v-125h-219v-703h-139v703h-219zM780 621l99 825h180l262 -678l262 678h178l94 -825h-133l-77 651l-254 -656h-156l-254 654l-74 -649h-127z" />
<glyph unicode="&#x25fc;" horiz-adv-x="1054" d="M0 0v1055h1055v-1055h-1055z" />
</font>
</defs>
</svg>
