<?xml version="1.0" standalone="no"?>
<!DOCTYPE svg PUBLIC "-//W3C//DTD SVG 1.1//EN" "http://www.w3.org/Graphics/SVG/1.1/DTD/svg11.dtd" >
<svg xmlns="http://www.w3.org/2000/svg" xmlns:xlink="http://www.w3.org/1999/xlink" version="1.1">
<metadata></metadata>
<defs>
<font id="simplerpro_leumi_hlight" horiz-adv-x="1228" >
<font-face units-per-em="2048" ascent="1638" descent="-410" />
<missing-glyph horiz-adv-x="501" />
<glyph horiz-adv-x="0" />
<glyph horiz-adv-x="682" />
<glyph unicode=" "  horiz-adv-x="501" />
<glyph unicode="&#x09;" horiz-adv-x="501" />
<glyph unicode="&#xa0;" horiz-adv-x="501" />
<glyph unicode="!" horiz-adv-x="487" d="M143 74q0 41 30 70.5t71 29.5t70.5 -29.5t29.5 -70.5t-29.5 -71t-70.5 -30t-71 30t-30 71zM188 831v404h111v-401l-31 -486h-49z" />
<glyph unicode="&#x22;" horiz-adv-x="645" d="M0 920l139 403h137l-219 -403h-57zM307 920l160 403h137l-239 -403h-58z" />
<glyph unicode="#" horiz-adv-x="1480" d="M205 274v84h272v357h-272v82h272v274h88v-274h348v274h91v-274h272v-82h-272v-357h272v-84h-272v-274h-91v274h-348v-274h-88v274h-272zM565 358h348v357h-348v-357z" />
<glyph unicode="$" horiz-adv-x="901" d="M111 66l2 122q135 -102 293 -114v454l-19 4q-125 35 -199.5 98.5t-74.5 203.5q0 135 78.5 219t214.5 100v213h90v-209q154 -10 270 -90l-2 -121q-123 98 -268 111v-449l16 -4q80 -23 136.5 -50.5t98 -86.5t41.5 -156q0 -135 -78.5 -223t-213.5 -106v-205h-90v200 q-80 2 -158 26t-137 63zM217 842q0 -86 48 -131t141 -76v420q-90 -12 -139.5 -68.5t-49.5 -144.5zM496 78q90 16 139 73.5t49 145.5t-50 134t-138 73v-426z" />
<glyph unicode="%" horiz-adv-x="1345" d="M184 969q0 75 53.5 128.5t129.5 53.5t130 -53.5t54 -128.5q0 -76 -53.5 -130.5t-130.5 -54.5q-76 0 -129.5 54.5t-53.5 130.5zM238 -6l776 1136h96l-776 -1136h-96zM256 969q0 -45 33 -79t78 -34q47 0 79.5 34t32.5 79q0 47 -32.5 79.5t-79.5 32.5q-45 0 -78 -33.5 t-33 -78.5zM795 154q0 77 54 130.5t130 53.5t129 -54.5t53 -129.5q0 -76 -53 -129.5t-129 -53.5t-130 53.5t-54 129.5zM864 154q0 -48 34 -80.5t81 -32.5t80 34t33 79q0 47 -33 80.5t-80 33.5t-81 -33.5t-34 -80.5z" />
<glyph unicode="&#x26;" horiz-adv-x="1435" d="M143 334q0 127 75 225t208 180q-82 96 -118 174t-36 164q0 154 98.5 250t254.5 96q139 0 222 -75.5t83 -202.5q0 -111 -79 -205t-276 -217q199 -213 404 -428q123 115 303 309v-133q-150 -166 -238 -244l222 -227h-142l-157 164q-213 -184 -432 -184q-115 0 -204 45 t-138.5 124.5t-49.5 184.5zM242 348q0 -121 85 -197.5t222 -76.5q88 0 169 36.5t183 120.5q-340 354 -416 443q-117 -68 -180 -144.5t-63 -181.5zM369 1092q0 -72 34.5 -140.5t114.5 -156.5q170 102 241.5 179t71.5 165t-60 141t-159 53q-111 0 -177 -66.5t-66 -174.5z" />
<glyph unicode="'" horiz-adv-x="317" d="M0 920l139 403h137l-219 -403h-57z" />
<glyph unicode="(" horiz-adv-x="675" d="M164 543q0 170 49 341t141 313t219 228h52q-182 -205 -260 -419.5t-78 -456.5q0 -244 77.5 -460t260.5 -419h-52q-127 82 -219 223.5t-141 310.5t-49 339z" />
<glyph unicode=")" horiz-adv-x="675" d="M51 -330q182 203 260 419t78 460q0 242 -78 457t-260 419h51q127 -86 219.5 -228t141.5 -313t49 -341t-49 -339t-141.5 -310.5t-219.5 -223.5h-51z" />
<glyph unicode="*" horiz-adv-x="856" d="M72 1106l30 98l277 -112l-23 305h101l-21 -310l275 113l32 -96l-282 -72l186 -237l-80 -60l-157 264l-164 -266l-80 60l190 239z" />
<glyph unicode="+" horiz-adv-x="1347" d="M164 522v90h461v465h98v-465h461v-90h-461v-465h-98v465h-461z" />
<glyph unicode="," horiz-adv-x="509" d="M82 -246l111 383h163l-190 -383h-84z" />
<glyph unicode="-" horiz-adv-x="1071" d="M164 516v94h743v-94h-743z" />
<glyph unicode="." horiz-adv-x="507" d="M133 74q0 41 30 70.5t70 29.5q41 0 71 -29.5t30 -70.5t-30 -71t-71 -30q-40 0 -70 30t-30 71z" />
<glyph unicode="/" horiz-adv-x="745" d="M20 0l603 1133h102l-602 -1133h-103z" />
<glyph unicode="0" horiz-adv-x="1024" d="M123 549q0 293 104.5 451.5t296.5 158.5q182 0 279.5 -147.5t97.5 -425.5q0 -291 -104.5 -451t-296.5 -160q-183 0 -280 148.5t-97 425.5zM225 567q0 -241 74 -369t213 -128t213 129t74 370q0 240 -74 368t-213 128t-213 -128t-74 -370z" />
<glyph unicode="1" horiz-adv-x="606" d="M113 893v68q74 2 129 51t67 121h72v-1133h-98v893h-170z" />
<glyph unicode="2" horiz-adv-x="886" d="M102 0v86l449 541q63 80 88 129t25 102q0 94 -61.5 150.5t-164.5 56.5q-100 0 -162.5 -58.5t-70.5 -158.5h-101q6 139 100.5 224t241.5 85q141 0 229.5 -79t88.5 -210q0 -88 -44 -165.5t-151 -204.5l-333 -404h503v-94h-637z" />
<glyph unicode="3" horiz-adv-x="862" d="M102 10v109q90 -47 195 -47q156 0 250 82t94 217q0 111 -62.5 175t-168.5 64q-74 0 -140 -35l-22 105l307 362h-436v91h557v-76l-311 -367q31 6 65 6q137 0 223 -87t86 -232q0 -117 -56 -208t-156.5 -141.5t-229.5 -50.5q-103 0 -195 33z" />
<glyph unicode="4" horiz-adv-x="958" d="M82 246v69l469 818h111l-453 -795h426v229h90v-229h152v-92h-152v-246h-90v246h-553z" />
<glyph unicode="5" horiz-adv-x="866" d="M102 10l7 103q90 -43 192 -43q154 0 249 83t95 216q0 109 -60.5 175t-160.5 66q-55 0 -109.5 -21.5t-95.5 -60.5l-65 39l49 566h514v-91h-424l-33 -383q72 43 174 43q141 0 225 -88t84 -237q0 -119 -55 -210t-157.5 -140.5t-237.5 -49.5q-105 0 -191 33z" />
<glyph unicode="6" horiz-adv-x="937" d="M123 315q0 96 41 204t133 251l45 70q156 238 195 295h122l-55 -78q-131 -182 -205.5 -292t-97.5 -163q84 53 188 53q147 0 236.5 -88t89.5 -233q0 -162 -99.5 -260.5t-260.5 -98.5q-150 0 -241 93.5t-91 246.5zM221 311q0 -110 66.5 -177.5t177.5 -67.5q115 0 183.5 69.5 t68.5 183.5q0 113 -65.5 179.5t-178.5 66.5t-182.5 -69.5t-69.5 -184.5z" />
<glyph unicode="7" horiz-adv-x="823" d="M92 1036v97h680v-84q-223 -231 -320.5 -474t-101.5 -575h-102q2 330 94 575.5t295 460.5h-545z" />
<glyph unicode="8" horiz-adv-x="974" d="M123 297q0 96 45 172t129 121q-68 39 -103.5 104.5t-35.5 149.5q0 141 93 227t245 86q147 0 234 -81t87 -216q0 -84 -37 -153.5t-104 -110.5q84 -39 130 -112.5t46 -170.5q0 -152 -102.5 -244t-270.5 -92q-162 0 -259 87.5t-97 232.5zM227 301q0 -108 69 -173t187 -65 q121 0 193 67t72 177q0 109 -70 172.5t-189 63.5q-121 0 -191.5 -65.5t-70.5 -176.5zM258 844q0 -99 61.5 -156t165.5 -57q106 0 169 59.5t63 159.5q0 98 -62.5 156.5t-165.5 58.5q-104 0 -167.5 -60.5t-63.5 -160.5z" />
<glyph unicode="9" horiz-adv-x="937" d="M123 797q0 162 99.5 260t260.5 98q150 0 241 -93t91 -247q0 -96 -41 -204.5t-133 -250.5l-45 -69q-156 -238 -195 -295h-122l55 78q131 182 205.5 291.5t97.5 162.5q-84 -53 -188 -53q-147 0 -236.5 88t-89.5 234zM221 811q0 -113 65.5 -179.5t178.5 -66.5t182.5 70 t69.5 184q0 111 -66.5 178.5t-177.5 67.5q-115 0 -183.5 -69.5t-68.5 -184.5z" />
<glyph unicode=":" horiz-adv-x="491" d="M154 0v166h163v-166h-163zM154 846v168h163v-168h-163z" />
<glyph unicode=";" horiz-adv-x="520" d="M72 -246l110 383h164l-190 -383h-84zM174 840v174h172v-174h-172z" />
<glyph unicode="&#x3c;" horiz-adv-x="976" d="M164 567l579 580l70 -70l-514 -512l510 -512l-66 -67z" />
<glyph unicode="=" horiz-adv-x="1429" d="M205 319v91h1020v-91h-1020zM205 725v90h1020v-90h-1020z" />
<glyph unicode="&#x3e;" horiz-adv-x="976" d="M164 1077l69 70l580 -580l-580 -581l-65 67l510 512z" />
<glyph unicode="@" horiz-adv-x="1847" d="M164 717q0 233 98 412.5t276.5 278.5t411.5 99q225 0 393 -91t260.5 -260t92.5 -392q0 -193 -83 -306.5t-224 -113.5q-92 0 -155 46t-87 130q-31 -84 -106.5 -130t-182.5 -46q-109 0 -177.5 58.5t-68.5 150.5q0 186 265 238l149 28q53 12 74.5 32.5t21.5 57.5 q0 68 -53 111t-135 43q-80 0 -132 -43t-63 -117h-88q12 104 93 171t198 67q125 0 198.5 -71t73.5 -189v-250q0 -96 50.5 -152.5t136.5 -56.5q94 0 145 85t53 241q0 203 -80.5 354t-231 233t-351.5 82q-203 0 -355.5 -85t-236.5 -239.5t-84 -361.5q0 -203 81 -353.5 t230.5 -232.5t350.5 -82q135 0 290 54v-94q-137 -49 -303 -50q-223 0 -392 92.5t-261 260.5t-92 391zM700 559q0 -63 44 -100t120 -37q117 0 194 79t77 199v64l-265 -53q-170 -37 -170 -152z" />
<glyph unicode="A" horiz-adv-x="1345" d="M61 0l539 1405h145l539 -1405h-113l-172 455h-657l-170 -455h-111zM379 553h584l-293 772z" />
<glyph unicode="B" horiz-adv-x="1163" d="M205 0v1397h411q176 0 279.5 -90t103.5 -242q0 -100 -46 -181t-130 -126q119 -39 183.5 -129t64.5 -217q0 -123 -58.5 -216.5t-165 -144.5t-245.5 -51h-397zM309 94h316q154 0 248 83t94 220q0 133 -88 212t-236 79h-334v-594zM309 782h281q139 0 222 73t83 192 q0 117 -79 186.5t-210 69.5h-297v-521z" />
<glyph unicode="C" horiz-adv-x="1273" d="M113 678q0 221 86 391t242.5 263t359.5 93q195 0 340 -84v-122q-150 106 -348 106q-170 0 -300.5 -79t-201 -223t-70.5 -335q0 -186 68.5 -325.5t194.5 -214t296 -74.5q104 0 197.5 28.5t163.5 81.5v-110q-74 -49 -169 -75t-204 -26q-199 0 -346.5 87t-228 246t-80.5 372 z" />
<glyph unicode="D" horiz-adv-x="1470" d="M205 0v1397h442q215 0 376 -82t248 -232.5t87 -353.5q0 -215 -96.5 -381t-271.5 -257t-402 -91h-383zM309 100h295q193 0 339.5 77t226 215t79.5 319q0 178 -75.5 311t-216 204.5t-328.5 71.5h-320v-1198z" />
<glyph unicode="E" horiz-adv-x="1050" d="M205 0v1397h702v-101h-598v-508h541v-96h-541v-592h598v-100h-702z" />
<glyph unicode="F" horiz-adv-x="999" d="M205 0v1397h682v-101h-578v-540h520v-97h-520v-659h-104z" />
<glyph unicode="G" horiz-adv-x="1462" d="M113 678q0 221 92 391t258 263t383 93q231 0 399 -104v-127q-166 131 -409 131q-182 0 -321.5 -79t-216.5 -223t-77 -333q0 -188 73 -327.5t209 -215t320 -75.5q203 0 361 96v438h-293v101h397v-586q-94 -72 -217 -110t-262 -38q-211 0 -367.5 87t-242.5 246t-86 372z " />
<glyph unicode="H" horiz-adv-x="1499" d="M205 0v1397h104v-609h881v609h104v-1397h-104v692h-881v-692h-104z" />
<glyph unicode="I" horiz-adv-x="555" d="M225 0v1397h105v-1397h-105z" />
<glyph unicode="J" horiz-adv-x="577" d="M41 4v109q37 -31 90 -31q63 0 99 36t36 99l2 1180h105v-1164q0 -113 -65.5 -182t-172.5 -69h-3q-40 0 -91 22z" />
<glyph unicode="K" horiz-adv-x="1146" d="M205 0v1397h104v-1397h-104zM350 698l627 699h133l-625 -692l631 -705h-139z" />
<glyph unicode="L" horiz-adv-x="980" d="M205 0v1397h104v-1299h611v-98h-715z" />
<glyph unicode="M" horiz-adv-x="1947" d="M102 0l238 1401h154l479 -1309l479 1309h150l243 -1401h-104l-221 1298l-482 -1306h-137l-483 1313l-213 -1305h-103z" />
<glyph unicode="N" horiz-adv-x="1570" d="M205 0v1407h114l949 -1266v1256h98v-1407h-111l-952 1270v-1260h-98z" />
<glyph unicode="O" horiz-adv-x="1568" d="M113 678q0 221 86 391t242.5 263t359.5 93q197 0 344 -86t229 -244.5t82 -373.5q0 -221 -86 -391t-242.5 -263.5t-359.5 -93.5q-197 0 -344.5 86t-229 245t-81.5 374zM221 690q0 -188 67.5 -327.5t193.5 -215t296 -75.5q172 0 301 78.5t199 223t70 333.5q0 188 -69 327.5 t-195 215t-293 75.5q-172 0 -301.5 -79t-199 -223t-69.5 -333z" />
<glyph unicode="P" horiz-adv-x="1058" d="M205 1397h340q195 0 308.5 -101.5t113.5 -277.5q0 -125 -58.5 -219t-166 -146.5t-248.5 -52.5h-183v-600h-104zM311 696h191q166 0 263 84t97 228q0 135 -90 213.5t-242 78.5h-219v-604z" />
<glyph unicode="Q" horiz-adv-x="1585" d="M113 678q0 221 86 391t242.5 263t359.5 93q197 0 344 -86t229 -244.5t82 -373.5q0 -162 -47 -297t-133 -236l207 -188h-142l-135 123q-178 -150 -438 -150q-197 0 -344.5 86t-229 245t-81.5 374zM221 690q0 -188 67.5 -327.5t193.5 -215t296 -75.5q172 0 301 78.5 t199 223t70 333.5q0 188 -69 327.5t-195 215t-293 75.5q-172 0 -301.5 -79t-199 -223t-69.5 -333z" />
<glyph unicode="R" horiz-adv-x="1060" d="M205 0v1397h336q190 0 303.5 -98.5t113.5 -268.5q0 -166 -108.5 -276.5t-298.5 -126.5l448 -627h-127l-440 625h-123v-625h-104zM309 719h187q168 0 263 83t95 218q0 131 -90 207t-240 76h-215v-584z" />
<glyph unicode="S" horiz-adv-x="1036" d="M111 84v127q190 -135 376 -135q152 0 245 81t93 214q0 94 -45 152.5t-111.5 89t-181.5 65.5q-119 37 -190.5 70.5t-121.5 100t-50 175.5q0 182 114.5 288.5t311.5 106.5q94 0 187 -27.5t165 -76.5v-125q-207 131 -364 131q-145 0 -226.5 -75t-81.5 -208q0 -82 42 -132 t103.5 -77.5t168.5 -60.5q127 -39 202.5 -76t130 -110.5t54.5 -196.5q0 -121 -57.5 -213t-161 -143.5t-240.5 -51.5q-100 0 -195.5 28t-166.5 79z" />
<glyph unicode="T" horiz-adv-x="1021" d="M41 1298v99h940v-99h-418v-1298h-104v1298h-418z" />
<glyph unicode="U" horiz-adv-x="1378" d="M174 500v897h102l3 -887q0 -201 110.5 -319.5t296.5 -118.5q190 0 302 120.5t112 321.5l2 883h102v-867q0 -164 -66.5 -290.5t-186.5 -196.5t-275 -70q-150 0 -263.5 64.5t-176 183.5t-62.5 279z" />
<glyph unicode="V" horiz-adv-x="1253" d="M61 1397h111l455 -1317l458 1317h107l-498 -1405h-145z" />
<glyph unicode="W" horiz-adv-x="2136" d="M61 1397h111l434 -1305l395 1305h140l403 -1307l424 1307h107l-465 -1405h-144l-399 1292l-393 -1292h-144z" />
<glyph unicode="X" horiz-adv-x="1210" d="M57 0l494 731l-449 666h125l387 -574l387 574h119l-446 -662l495 -735h-125l-434 643l-434 -643h-119z" />
<glyph unicode="Y" horiz-adv-x="1134" d="M41 1397h121l409 -660l406 660h117l-473 -762v-635h-105v633z" />
<glyph unicode="Z" horiz-adv-x="1112" d="M113 0v92l759 1204h-743v101h870v-92l-759 -1205h759v-100h-886z" />
<glyph unicode="[" horiz-adv-x="661" d="M164 -330v1755h395v-92h-295v-1571h295v-92h-395z" />
<glyph unicode="\" horiz-adv-x="886" d="M20 1397h103l743 -1397h-102z" />
<glyph unicode="]" horiz-adv-x="661" d="M102 -238h295v1571h-295v92h396v-1755h-396v92z" />
<glyph unicode="^" horiz-adv-x="1353" d="M223 645l402 754h106l399 -754h-100l-352 660l-352 -660h-103z" />
<glyph unicode="_" horiz-adv-x="1107" d="M90 0h928v-92h-928v92z" />
<glyph unicode="`" d="M358 1487h160l139 -270h-67z" />
<glyph unicode="a" horiz-adv-x="1052" d="M102 250q0 127 90.5 202.5t262.5 110.5l200 41q76 14 107 45t31 86q0 92 -73 152.5t-190 60.5q-109 0 -180 -58.5t-90 -158.5h-102q18 129 119.5 219t263.5 90q164 0 260 -92t96 -252v-696h-45l-82 139q-51 -76 -144.5 -121t-207.5 -45q-146 0 -231 75t-85 202zM203 258 q0 -90 62.5 -143.5t168.5 -53.5q104 0 190.5 52.5t136.5 141.5t50 196v98l-371 -78q-117 -25 -177 -75t-60 -138z" />
<glyph unicode="b" horiz-adv-x="1146" d="M174 0v1528h102v-690q53 96 142.5 149t204.5 53q125 0 221 -63.5t148 -180t52 -274.5q0 -162 -55 -286.5t-157.5 -193.5t-235.5 -69q-96 0 -175 36t-134 104l-70 -113h-43zM270 502q0 -199 91.5 -317.5t242.5 -118.5q154 0 245 121.5t91 324.5q0 201 -90 318.5 t-242 117.5q-154 0 -246 -121.5t-92 -324.5z" />
<glyph unicode="c" horiz-adv-x="978" d="M102 492q0 162 61.5 286.5t175.5 193t263 68.5q143 0 254 -61v-119q-109 86 -262 86q-176 0 -281.5 -120.5t-105.5 -325.5q0 -199 101.5 -315.5t281.5 -116.5q70 0 139.5 18t126.5 53v-100q-121 -66 -274 -66q-146 0 -254.5 62.5t-167 180.5t-58.5 276z" />
<glyph unicode="d" horiz-adv-x="1157" d="M102 492q0 162 55.5 286.5t158 193t235.5 68.5q201 0 319 -151v639h103v-1528h-43l-82 137q-55 -80 -138 -122t-186 -42q-125 0 -221 63.5t-148.5 180.5t-52.5 275zM207 502q0 -201 90 -318.5t242 -117.5q154 0 246 121.5t92 324.5q0 199 -91.5 317.5t-242.5 118.5 q-154 0 -245 -121.5t-91 -324.5z" />
<glyph unicode="e" horiz-adv-x="1124" d="M102 494q0 162 58.5 285.5t165 192t247.5 68.5q135 0 236.5 -63.5t157 -180t55.5 -272.5v-37h-819q4 -199 99 -310t259 -111q121 0 205 61t123 174h106q-49 -154 -166.5 -241t-277.5 -87q-135 0 -236.5 64.5t-157 182.5t-55.5 274zM207 578h713q-8 172 -103.5 271 t-249.5 99t-252 -100t-108 -270z" />
<glyph unicode="f" horiz-adv-x="641" d="M72 922v92h133v268q0 123 72.5 197.5t193.5 74.5q84 0 150 -34v-107q-70 47 -150 47q-76 0 -120 -46t-44 -126v-274h283v-92h-283v-922h-102v922h-133z" />
<glyph unicode="g" horiz-adv-x="1087" d="M106 -256q74 -59 175.5 -91t222.5 -32q145 0 232 58.5t87 154.5q0 94 -82 127q-33 14 -82 21.5t-149 13.5q-135 10 -207 25.5t-114 60.5t-42 133q0 109 72 193q-106 96 -106 258q0 111 51 195.5t144 131.5t216 47q33 0 76 -4t64 -6q129 -14 192 -14h191v-90h-222 q88 -92 88 -240q0 -111 -51 -195.5t-145 -132t-215 -47.5q-129 0 -223 54q-37 -61 -37 -132q0 -63 33.5 -90.5t117.5 -38.5l156 -12q123 -8 201.5 -26.5t127 -70.5t48.5 -151q0 -145 -117 -230t-315 -85q-222 0 -388 92v123zM215 672q0 -123 80 -197t215 -74q137 0 219 77 t82 200q0 125 -81 198.5t-216 73.5t-217 -76.5t-82 -201.5z" />
<glyph unicode="h" horiz-adv-x="1138" d="M174 0v1528h100v-690q47 96 136.5 149t201.5 53q170 0 271.5 -108.5t101.5 -288.5v-643h-100v625q0 145 -80 232t-213 87q-145 0 -231.5 -105.5t-86.5 -281.5v-557h-100z" />
<glyph unicode="i" horiz-adv-x="489" d="M184 1274v123h121v-123h-121zM193 0v1014h104v-1014h-104z" />
<glyph unicode="j" horiz-adv-x="497" d="M0 -369q40 -30 83 -30h3q57 0 90 35.5t33 99.5v1278h104v-1278q0 -100 -61.5 -165t-157.5 -65q-51 1 -94 21v104zM197 1270v127h127v-127h-127z" />
<glyph unicode="k" horiz-adv-x="948" d="M174 0v1528h105v-1528h-105zM315 508l455 506h127l-446 -498l467 -516h-142z" />
<glyph unicode="l" horiz-adv-x="471" d="M184 0v1528h105v-1528h-105z" />
<glyph unicode="m" horiz-adv-x="1804" d="M174 0v1014h43l84 -123q51 72 128 110.5t171 38.5q123 0 211 -62.5t125 -174.5q45 113 137 175t215 62q164 0 263.5 -108.5t99.5 -288.5v-643h-101v625q0 145 -76.5 232t-203.5 87q-141 0 -224 -105.5t-83 -281.5v-557h-101v625q0 143 -77.5 231t-204.5 88 q-139 0 -222.5 -105.5t-83.5 -281.5v-557h-100z" />
<glyph unicode="n" horiz-adv-x="1138" d="M174 0v1014h43l88 -125q49 74 128 112.5t179 38.5q170 0 271.5 -108.5t101.5 -288.5v-643h-100v625q0 145 -80 232t-213 87q-145 0 -231.5 -105.5t-86.5 -281.5v-557h-100z" />
<glyph unicode="o" horiz-adv-x="1191" d="M102 492q0 162 63.5 286.5t178.5 193t264 68.5q145 0 254 -63.5t168.5 -181t59.5 -273.5q0 -162 -63.5 -286.5t-178.5 -193.5t-264 -69q-146 0 -254.5 63.5t-168 181.5t-59.5 274zM209 502q0 -201 103.5 -318.5t279.5 -117.5q178 0 284.5 120.5t106.5 325.5 q0 199 -103.5 317.5t-279.5 118.5q-178 0 -284.5 -120.5t-106.5 -325.5z" />
<glyph unicode="p" horiz-adv-x="1146" d="M174 -471v1485h43l82 -137q57 80 140 121.5t184 41.5q127 0 222 -63.5t147 -181t52 -273.5q0 -164 -56 -287.5t-157.5 -192.5t-234.5 -69q-98 0 -179 39t-141 113v-596h-102zM270 502q0 -199 91.5 -317.5t242.5 -118.5q154 0 245 120.5t91 325.5q0 201 -90 318.5 t-242 117.5q-154 0 -246 -121.5t-92 -324.5z" />
<glyph unicode="q" horiz-adv-x="1157" d="M102 492q0 162 55.5 286.5t158 193t235.5 68.5q96 0 175 -35.5t134 -103.5l70 113h43v-1485h-103v647q-53 -96 -142 -149.5t-204 -53.5q-125 0 -221 63.5t-148.5 180.5t-52.5 275zM207 502q0 -201 90 -318.5t242 -117.5q154 0 246 121.5t92 324.5q0 199 -91.5 317.5 t-242.5 118.5q-154 0 -245 -121.5t-91 -324.5z" />
<glyph unicode="r" horiz-adv-x="688" d="M174 0v1014h55l74 -121q35 72 91.5 108.5t131.5 36.5q55 0 101 -18v-115q-61 33 -121 33q-104 0 -167 -93t-63 -249v-596h-102z" />
<glyph unicode="s" horiz-adv-x="841" d="M94 57l2 121q66 -53 144.5 -81.5t162.5 -28.5q117 0 183.5 52t66.5 144q0 76 -50 118t-183 79q-104 29 -160.5 52.5t-102.5 77.5t-46 150q0 139 88 219t237 80q78 0 153 -20.5t132 -56.5l-2 -121q-55 51 -129 78.5t-152 27.5q-109 0 -168 -49t-59 -141q0 -63 30.5 -102.5 t75.5 -57.5t121 -39q37 -8 56 -14q82 -25 135 -52.5t89 -79t36 -134.5q0 -139 -94.5 -221.5t-258.5 -82.5q-174 0 -307 82z" />
<glyph unicode="t" horiz-adv-x="720" d="M51 922v82h78q45 0 71.5 26.5t26.5 71.5v153h88v-241h289v-92h-289v-672q0 -86 46.5 -134t132.5 -48q74 0 135 30v-96q-74 -29 -156 -29q-121 0 -190.5 71t-69.5 192v686h-162z" />
<glyph unicode="u" horiz-adv-x="1093" d="M154 395v619h102v-608q0 -154 78 -245t211 -91q135 0 214 93t79 249v602h102v-584q0 -135 -50 -238.5t-142.5 -161t-210.5 -57.5q-172 0 -277.5 114t-105.5 308z" />
<glyph unicode="v" horiz-adv-x="940" d="M20 1014h105l338 -934l332 934h104l-371 -1016h-139z" />
<glyph unicode="w" horiz-adv-x="1591" d="M20 1014h109l303 -926l285 926h145l281 -942l307 942h100l-346 -1022h-143l-277 946l-284 -946h-144z" />
<glyph unicode="x" horiz-adv-x="980" d="M31 0l397 549l-336 465h125l275 -379l272 379h117l-332 -459l401 -555h-125l-338 469l-340 -469h-116z" />
<glyph unicode="y" horiz-adv-x="948" d="M20 1014h107l352 -889l324 889h104l-553 -1485h-104l176 455z" />
<glyph unicode="z" horiz-adv-x="917" d="M102 0v84l605 836h-601v94h719v-84l-604 -836h600v-94h-719z" />
<glyph unicode="{" horiz-adv-x="792" d="M123 498v98q115 35 168 110.5t53 231.5v162q0 115 24.5 184.5t88 105t178.5 35.5h35v-94h-47q-78 0 -116 -30.5t-50.5 -98t-12.5 -194.5q0 -156 -15 -233t-56 -124t-133 -102q92 -55 133 -103.5t56 -126t15 -231.5q0 -129 12.5 -195.5t50.5 -97.5t116 -31h47v-94h-35 q-115 0 -178.5 35t-88 105.5t-24.5 185.5v162q0 156 -53 231.5t-168 108.5z" />
<glyph unicode="|" horiz-adv-x="921" d="M410 -471v1999h102v-1999h-102z" />
<glyph unicode="}" horiz-adv-x="792" d="M123 -236h47q78 0 116 31t50 97.5t12 195.5q0 154 15.5 231.5t56.5 126t133 103.5q-92 55 -133 102t-56.5 124t-15.5 233q0 127 -12 194.5t-50 98t-116 30.5h-47v94h35q115 0 178 -35.5t88 -105.5t25 -184v-162q0 -156 53 -231.5t168 -110.5v-98q-115 -33 -168 -109 t-53 -231v-162q0 -115 -25 -185.5t-88.5 -105.5t-177.5 -35h-35v94z" />
<glyph unicode="~" horiz-adv-x="1519" d="M205 455v116q86 63 157.5 91t151.5 28q57 0 115.5 -18.5t146.5 -55.5q94 -39 146.5 -55t107.5 -16q63 0 128 34.5t157 118.5v-116q-68 -72 -139.5 -102.5t-155.5 -30.5q-64 0 -124 18t-155 57q-84 35 -139 52.5t-110 17.5q-61 0 -123 -32t-164 -107z" />
<glyph unicode="&#xa2;" horiz-adv-x="978" d="M102 549q0 223 114 369.5t306 173.5v274h90v-268q137 -4 244 -62v-118q-102 80 -244 86v-879q133 6 244 72v-101q-109 -59 -244 -65v-254h-90v256q-195 20 -307.5 157.5t-112.5 358.5zM207 557q0 -178 83 -291.5t232 -136.5v868q-145 -23 -230 -140.5t-85 -299.5z" />
<glyph unicode="&#xa3;" horiz-adv-x="1015" d="M82 508v92h166v244q0 141 91 227t245 86q76 0 151.5 -22.5t134.5 -65.5v-123q-51 55 -127.5 86t-158.5 31q-111 0 -170.5 -57.5t-59.5 -153.5v-252h375v-92h-373v-410h578v-98h-686v508h-166z" />
<glyph unicode="&#xa5;" horiz-adv-x="1009" d="M61 1133h117l332 -523l328 523h110l-346 -549h299v-95h-342v-176h342v-94h-342v-219h-102v219h-346v94h344v176h-344v95h303z" />
<glyph unicode="&#xa8;" d="M342 1331q0 39 26.5 65.5t65.5 26.5t65.5 -26.5t26.5 -65.5t-26.5 -65.5t-65.5 -26.5t-65.5 26.5t-26.5 65.5zM705 1331q0 39 26.5 65.5t65.5 26.5t65.5 -26.5t26.5 -65.5t-26.5 -65.5t-65.5 -26.5t-65.5 26.5t-26.5 65.5z" />
<glyph unicode="&#xa9;" horiz-adv-x="1859" d="M164 717q0 233 98 412.5t276.5 278.5t411.5 99q223 0 391 -90t261.5 -258t93.5 -395q0 -233 -98.5 -412.5t-276.5 -279t-412 -99.5q-221 0 -390 91.5t-262 259.5t-93 393zM260 731q0 -203 81 -353.5t230.5 -232.5t350.5 -82q207 0 359.5 85t235 240t82.5 360 q0 203 -81.5 354t-231 233t-350.5 82q-205 0 -357.5 -86t-235.5 -240.5t-83 -359.5zM582 731q0 180 104.5 291t274.5 111q117 0 196 -52v-104q-76 74 -201 74q-131 0 -206.5 -84t-75.5 -230q0 -143 73.5 -226t204.5 -83q123 0 209 70v-88q-43 -29 -100 -45.5t-121 -16.5 q-162 0 -260 104.5t-98 278.5z" />
<glyph unicode="&#xab;" horiz-adv-x="1126" d="M184 510l285 395h123l-281 -395l281 -395h-123zM535 510l284 395h123l-280 -395l280 -395h-123z" />
<glyph unicode="&#xad;" horiz-adv-x="1071" d="M164 516v94h743v-94h-743z" />
<glyph unicode="&#xae;" horiz-adv-x="1859" d="M164 717q0 233 98 412.5t276.5 278.5t411.5 99q223 0 391 -90t261.5 -258t93.5 -395q0 -233 -98.5 -412.5t-276.5 -279t-412 -99.5q-221 0 -390 91.5t-262 259.5t-93 393zM260 731q0 -203 81 -353.5t230.5 -232.5t350.5 -82q207 0 359.5 85t235 240t82.5 360 q0 203 -81.5 354t-231 233t-350.5 82q-205 0 -357.5 -86t-235.5 -240.5t-83 -359.5zM735 356v772h199q111 0 177.5 -57t66.5 -151q0 -90 -57.5 -150.5t-151.5 -77.5l241 -336h-106l-238 332h-41v-332h-90zM825 768h86q80 0 127 39t47 106q0 63 -43 99.5t-116 36.5h-101v-281 z" />
<glyph unicode="&#xb4;" d="M592 1196l139 270h160l-232 -270h-67z" />
<glyph unicode="&#xb8;" d="M369 -428l34 76q94 -41 179 -41q57 0 90 24.5t33 69.5q0 82 -107 82q-57 0 -113 -23l-22 31l96 217h103l-91 -160q31 8 66 9q72 0 121 -37t49 -107q0 -82 -67.5 -133t-174.5 -51q-87 0 -196 43z" />
<glyph unicode="&#xbb;" horiz-adv-x="1126" d="M184 115l281 395l-281 395h123l285 -395l-285 -395h-123zM535 115l280 395l-280 395h122l285 -395l-285 -395h-122z" />
<glyph unicode="&#x2c6;" d="M336 1196l231 270h103l231 -270h-110l-173 201l-172 -201h-110z" />
<glyph unicode="&#x2da;" d="M451 1343q0 68 49 116t114 48q68 0 117 -48t49 -116t-49 -116.5t-117 -48.5q-65 0 -114 49t-49 116zM528 1343q0 -34 25 -60t61 -26q37 0 61.5 26t24.5 60q0 37 -24.5 63t-61.5 26t-61.5 -26t-24.5 -63z" />
<glyph unicode="&#x2dc;" d="M291 1235q14 92 60 141t118 49q43 0 78 -13t86 -42q45 -23 71.5 -34t57.5 -11q84 0 119 100h59q-14 -96 -60 -145t-120 -49q-43 0 -83 14.5t-91 40.5q-43 23 -71 33t-54 10q-41 0 -74 -26.5t-45 -67.5h-51z" />
<glyph unicode="&#x2000;" horiz-adv-x="777" />
<glyph unicode="&#x2001;" horiz-adv-x="1554" />
<glyph unicode="&#x2002;" horiz-adv-x="777" />
<glyph unicode="&#x2003;" horiz-adv-x="1554" />
<glyph unicode="&#x2004;" horiz-adv-x="518" />
<glyph unicode="&#x2005;" horiz-adv-x="388" />
<glyph unicode="&#x2006;" horiz-adv-x="259" />
<glyph unicode="&#x2007;" horiz-adv-x="259" />
<glyph unicode="&#x2008;" horiz-adv-x="194" />
<glyph unicode="&#x2009;" horiz-adv-x="310" />
<glyph unicode="&#x200a;" horiz-adv-x="86" />
<glyph unicode="&#x2010;" horiz-adv-x="1071" d="M164 516v94h743v-94h-743z" />
<glyph unicode="&#x2011;" horiz-adv-x="1071" d="M164 516v94h743v-94h-743z" />
<glyph unicode="&#x2012;" horiz-adv-x="1071" d="M164 516v94h743v-94h-743z" />
<glyph unicode="&#x2013;" horiz-adv-x="1542" d="M164 516v94h1214v-94h-1214z" />
<glyph unicode="&#x2014;" horiz-adv-x="2433" d="M164 516v94h2105v-94h-2105z" />
<glyph unicode="&#x2018;" horiz-adv-x="256" d="M0 920l219 403h57l-139 -403h-137z" />
<glyph unicode="&#x2019;" horiz-adv-x="317" d="M0 920l139 405h137l-219 -405h-57z" />
<glyph unicode="&#x201a;" horiz-adv-x="378" d="M41 -248l139 404h137l-219 -404h-57z" />
<glyph unicode="&#x201c;" horiz-adv-x="583" d="M0 920l240 403h57l-160 -403h-137zM328 920l219 403h57l-139 -403h-137z" />
<glyph unicode="&#x201d;" horiz-adv-x="645" d="M0 920l139 403h137l-219 -403h-57zM307 920l160 403h137l-239 -403h-58z" />
<glyph unicode="&#x201e;" horiz-adv-x="706" d="M41 -248l139 404h137l-219 -404h-57zM348 -248l160 404h137l-239 -404h-58z" />
<glyph unicode="&#x2026;" horiz-adv-x="1630" d="M164 80q0 41 29.5 70.5t70.5 29.5t71 -29.5t30 -70.5t-30 -70.5t-71 -29.5t-70.5 29.5t-29.5 70.5zM715 80q0 41 29.5 70.5t70.5 29.5t70.5 -29.5t29.5 -70.5t-29.5 -70.5t-70.5 -29.5t-70.5 29.5t-29.5 70.5zM1266 80q0 41 29.5 70.5t70.5 29.5t70.5 -29.5t29.5 -70.5 t-29.5 -70.5t-70.5 -29.5t-70.5 29.5t-29.5 70.5z" />
<glyph unicode="&#x202f;" horiz-adv-x="310" />
<glyph unicode="&#x2039;" horiz-adv-x="776" d="M184 510l285 395h123l-281 -395l281 -395h-123z" />
<glyph unicode="&#x203a;" horiz-adv-x="776" d="M184 115l281 395l-281 395h123l285 -395l-285 -395h-123z" />
<glyph unicode="&#x205f;" horiz-adv-x="388" />
<glyph unicode="&#x20ac;" horiz-adv-x="1126" d="M61 375l35 90h125q-4 53 -4 84q0 49 2 72h-158l35 90h137q41 205 180.5 325.5t340.5 120.5q147 0 270 -63l-37 -97q-106 61 -244 62q-154 0 -261 -93.5t-142 -254.5h537l-35 -90h-516q-2 -23 -2 -68q0 -31 4 -88h452l-35 -90h-399q39 -145 139.5 -226t247.5 -81 q141 0 256 63v-100q-115 -59 -266 -60q-188 0 -317.5 107.5t-169.5 296.5h-175z" />
<glyph unicode="&#x2122;" horiz-adv-x="1810" d="M133 1331v66h522v-66h-227v-704h-68v704h-227zM721 627l129 770h92l256 -699l256 699h88l133 -770h-67l-115 682l-252 -686h-84l-258 690l-111 -686h-67z" />
<glyph unicode="&#x25fc;" horiz-adv-x="1013" d="M0 0v1014h1014v-1014h-1014z" />
</font>
</defs>
</svg>
