<svg width="117" height="165" viewBox="0 0 117 165" fill="none" xmlns="http://www.w3.org/2000/svg">
<g filter="url(#filter0_i_321_3027)">
<path d="M21.7108 0.753565L100.231 46.0872C102.808 47.5751 104.897 51.1935 104.897 54.1695V132.435C104.897 133.923 104.375 134.968 103.531 135.455C102.686 135.943 99.5789 137.737 99.5789 137.737L21.7111 89.7955C19.1341 88.3075 17.0452 84.6888 17.0452 81.7134L14.4192 2.74104C14.4192 2.74104 17.5673 0.914688 18.4117 0.426845C19.2558 -0.0606998 20.4225 0.0100153 21.7108 0.753565Z" fill="#7CB0FF"/>
</g>
<g filter="url(#filter1_i_321_3027)">
<path d="M17.903 2.94697L96.4231 48.2806C99.0001 49.7686 101.089 53.3869 101.089 56.3626V134.628C101.089 137.604 99.0001 138.81 96.4231 137.322L17.903 91.9886C15.326 90.5006 13.2367 86.8822 13.2367 83.9065V5.641C13.2367 2.6656 15.326 1.45927 17.903 2.94697Z" fill="#A2C6FD"/>
</g>
<g filter="url(#filter2_ii_321_3027)">
<path d="M96.2314 113.31C96.2314 114.08 95.3981 114.561 94.7314 114.176L18.7849 70.3281C18.4755 70.1495 18.2849 69.8193 18.2849 69.4621V11.917C18.2849 11.1472 19.1182 10.6661 19.7849 11.051L95.7314 54.8986C96.0408 55.0773 96.2314 55.4074 96.2314 55.7647V113.31Z" fill="#C1DAFE"/>
</g>
<ellipse cx="1.93655" cy="1.96797" rx="1.93655" ry="1.96797" transform="matrix(0.889949 0.45606 -0.227215 0.973845 23.3926 21.8757)" fill="#0066FF"/>
<ellipse cx="1.93655" cy="1.96797" rx="1.93655" ry="1.96797" transform="matrix(0.889949 0.45606 -0.227215 0.973845 29.1387 24.8196)" fill="#0066FF"/>
<ellipse cx="1.93655" cy="1.96797" rx="1.93655" ry="1.96797" transform="matrix(0.889949 0.45606 -0.227215 0.973845 34.8818 27.7632)" fill="#0066FF"/>
<path fill-rule="evenodd" clip-rule="evenodd" d="M87.1692 60.3612C87.277 61.1508 86.7243 61.8782 85.9347 61.986L51.065 66.7464C50.0856 66.8801 49.1643 66.2499 48.9339 65.2886L48.3352 62.7908C48.1062 61.8353 47.194 61.206 46.2195 61.331L26.9061 63.8088C26.1157 63.9103 25.3927 63.3517 25.2913 62.5613C25.1899 61.7709 25.7485 61.048 26.5389 60.9465L48.422 58.139C49.3965 58.014 50.3086 58.6434 50.5376 59.5988L51.1314 62.0761C51.3618 63.0373 52.2831 63.6676 53.2625 63.5339L85.5444 59.1267C86.3339 59.019 87.0614 59.5716 87.1692 60.3612Z" fill="#126CF9"/>
<path d="M52.1883 97.8608C53.7166 98.7431 54.9561 100.889 54.9561 102.654C54.9561 104.419 53.7169 105.134 52.1883 104.251C50.6601 103.369 49.4209 101.223 49.4209 99.4586C49.4212 97.6934 50.6601 96.9782 52.1883 97.8608Z" fill="#D1E3FE"/>
<g filter="url(#filter3_f_321_3027)">
<rect x="68.2441" y="89.8562" width="8.8154" height="44.0431" rx="4.4077" transform="rotate(-15.2696 68.2441 89.8562)" fill="#0066FF" fill-opacity="0.82"/>
</g>
<g filter="url(#filter4_f_321_3027)">
<path d="M70.7725 157.994L36.668 140.463L70.7725 122.931L104.877 140.463L70.7725 157.994Z" fill="#408CFE" fill-opacity="0.3"/>
</g>
<g filter="url(#filter5_f_321_3027)">
<path d="M70.7725 150.692L36.668 133.16L70.7725 115.629L104.877 133.16L70.7725 150.692Z" fill="#408CFE" fill-opacity="0.3"/>
</g>
<g filter="url(#filter6_i_321_3027)">
<path d="M70.8979 148.704L40.9248 133.296L70.8979 117.888L100.871 133.296L70.8979 148.704Z" fill="#0066FF"/>
</g>
<g filter="url(#filter7_i_321_3027)">
<path d="M100.871 133.296L70.8979 148.704V153.63L100.871 137.788V133.296Z" fill="#0066FF"/>
</g>
<g filter="url(#filter8_i_321_3027)">
<path d="M40.9249 133.296L70.8979 148.704V153.63L40.9249 137.788V133.296Z" fill="#0066FF"/>
</g>
<path d="M71.5103 126.14C78.1938 126.14 84.0347 125.037 87.1925 123.394L83.5942 110.736C80.3825 111.61 76.1494 112.141 71.5103 112.141C66.9438 112.141 62.7706 111.627 59.5778 110.777L55.8862 123.424C59.0572 125.05 64.8677 126.14 71.5103 126.14Z" fill="#0066FF"/>
<path fill-rule="evenodd" clip-rule="evenodd" d="M67.1797 84.7456C67.304 84.0171 69.2758 83.438 71.6901 83.438C74.1044 83.438 76.0763 84.0171 76.2005 84.7456H76.2015L79.8979 97.7489C77.3877 98.1489 74.5337 98.3751 71.507 98.3751C68.5805 98.3751 65.8156 98.1637 63.3667 97.7881L67.1735 84.7456H67.1797Z" fill="#0066FF"/>
<path d="M83.5916 110.739L79.8987 97.7482C77.3885 98.1482 74.5345 98.3744 71.5077 98.3744C68.5813 98.3744 65.8163 98.163 63.3675 97.7875L59.5751 110.78C62.7679 111.63 66.9412 112.145 71.5077 112.145C76.1468 112.145 80.3799 111.614 83.5916 110.739Z" fill="#C1DAFE"/>
<path d="M53.3359 132.152C53.3359 135.22 61.4738 137.708 71.5124 137.708C81.551 137.708 89.6888 135.22 89.6888 132.152L87.1946 123.377C84.0368 125.02 78.1958 126.123 71.5124 126.123C64.8697 126.123 59.0593 125.033 55.8883 123.407L53.3359 132.152Z" fill="#C1DAFE"/>
<g opacity="0.78" filter="url(#filter9_i_321_3027)">
<path fill-rule="evenodd" clip-rule="evenodd" d="M67.1942 84.6975C67.395 83.9917 69.3328 83.438 71.6936 83.438C74.0545 83.438 75.9923 83.9917 76.1931 84.6975H76.2099L89.4161 131.155C89.5974 131.47 89.692 131.794 89.692 132.125C89.692 135.193 81.5541 137.681 71.5155 137.681C61.477 137.681 53.3392 135.193 53.3391 132.125H53.3389L53.3391 132.124C53.3392 131.785 53.4386 131.453 53.6289 131.131L67.1819 84.6975H67.1942Z" fill="white" style="mix-blend-mode:multiply"/>
</g>
<g filter="url(#filter10_d_321_3027)">
<path d="M26.2368 91.1094C24.4452 95.8396 19.6851 96.9557 18.0127 96.9256L21.6679 81.5238C23.9373 82.7481 28.0283 86.3792 26.2368 91.1094Z" fill="#1F79FE"/>
<path d="M7.55154 66.3168C2.76552 67.9533 1.3542 71.4677 1.06558 73.1153L16.8815 72.4571C16.1113 69.9962 14.1545 64.0589 7.55154 66.3168Z" fill="#1C77FF"/>
<g filter="url(#filter11_di_321_3027)">
<rect width="26.3883" height="26.3883" rx="13.1942" transform="matrix(0.866025 0.5 0 1 0.814453 62.438)" fill="#0066FF"/>
<rect width="26.3883" height="26.3883" rx="13.1942" transform="matrix(0.866025 0.5 0 1 0.814453 62.438)" fill="url(#paint0_radial_321_3027)" fill-opacity="0.11"/>
</g>
<path fill-rule="evenodd" clip-rule="evenodd" d="M7.81643 85.8237C7.5104 86.1916 7.64878 86.8885 8.12551 87.3803C8.60224 87.8721 9.23679 87.9726 9.54282 87.6048L12.1286 84.4966L15.2715 89.3562C15.6435 89.9314 16.2914 90.223 16.7187 90.0075C17.1459 89.7921 17.1908 89.1512 16.8188 88.5761L13.283 83.109L16.1922 79.6119C16.4983 79.2441 16.3599 78.5472 15.8832 78.0553C15.4064 77.5635 14.7719 77.463 14.4658 77.8309L11.8798 80.9394L8.7366 76.0793C8.36463 75.5042 7.71671 75.2126 7.28944 75.428C6.86216 75.6435 6.81733 76.2843 7.1893 76.8595L10.7254 82.327L7.81643 85.8237Z" fill="white"/>
</g>
<defs>
<filter id="filter0_i_321_3027" x="10.9358" y="0.116455" width="93.9616" height="139.943" filterUnits="userSpaceOnUse" color-interpolation-filters="sRGB">
<feFlood flood-opacity="0" result="BackgroundImageFix"/>
<feBlend mode="normal" in="SourceGraphic" in2="BackgroundImageFix" result="shape"/>
<feColorMatrix in="SourceAlpha" type="matrix" values="0 0 0 0 0 0 0 0 0 0 0 0 0 0 0 0 0 0 127 0" result="hardAlpha"/>
<feOffset dx="-3.48312" dy="2.32208"/>
<feGaussianBlur stdDeviation="2.9026"/>
<feComposite in2="hardAlpha" operator="arithmetic" k2="-1" k3="1"/>
<feColorMatrix type="matrix" values="0 0 0 0 1 0 0 0 0 1 0 0 0 0 1 0 0 0 0.32 0"/>
<feBlend mode="normal" in2="shape" result="effect1_innerShadow_321_3027"/>
</filter>
<filter id="filter1_i_321_3027" x="9.58551" y="2.30981" width="91.5039" height="138.084" filterUnits="userSpaceOnUse" color-interpolation-filters="sRGB">
<feFlood flood-opacity="0" result="BackgroundImageFix"/>
<feBlend mode="normal" in="SourceGraphic" in2="BackgroundImageFix" result="shape"/>
<feColorMatrix in="SourceAlpha" type="matrix" values="0 0 0 0 0 0 0 0 0 0 0 0 0 0 0 0 0 0 127 0" result="hardAlpha"/>
<feOffset dx="-3.65131" dy="2.43421"/>
<feGaussianBlur stdDeviation="3.58499"/>
<feComposite in2="hardAlpha" operator="arithmetic" k2="-1" k3="1"/>
<feColorMatrix type="matrix" values="0 0 0 0 1 0 0 0 0 1 0 0 0 0 1 0 0 0 0.21 0"/>
<feBlend mode="normal" in2="shape" result="effect1_innerShadow_321_3027"/>
</filter>
<filter id="filter2_ii_321_3027" x="14.8015" y="10.9155" width="102.77" height="111.603" filterUnits="userSpaceOnUse" color-interpolation-filters="sRGB">
<feFlood flood-opacity="0" result="BackgroundImageFix"/>
<feBlend mode="normal" in="SourceGraphic" in2="BackgroundImageFix" result="shape"/>
<feColorMatrix in="SourceAlpha" type="matrix" values="0 0 0 0 0 0 0 0 0 0 0 0 0 0 0 0 0 0 127 0" result="hardAlpha"/>
<feOffset dx="-3.48312" dy="2.32208"/>
<feGaussianBlur stdDeviation="2.9026"/>
<feComposite in2="hardAlpha" operator="arithmetic" k2="-1" k3="1"/>
<feColorMatrix type="matrix" values="0 0 0 0 1 0 0 0 0 1 0 0 0 0 1 0 0 0 0.3 0"/>
<feBlend mode="normal" in2="shape" result="effect1_innerShadow_321_3027"/>
<feColorMatrix in="SourceAlpha" type="matrix" values="0 0 0 0 0 0 0 0 0 0 0 0 0 0 0 0 0 0 127 0" result="hardAlpha"/>
<feOffset dx="90.2843" dy="8.20767"/>
<feGaussianBlur stdDeviation="10.67"/>
<feComposite in2="hardAlpha" operator="arithmetic" k2="-1" k3="1"/>
<feColorMatrix type="matrix" values="0 0 0 0 1 0 0 0 0 1 0 0 0 0 1 0 0 0 0.25 0"/>
<feBlend mode="normal" in2="effect1_innerShadow_321_3027" result="effect2_innerShadow_321_3027"/>
</filter>
<filter id="filter3_f_321_3027" x="53.2441" y="72.5345" width="50.1035" height="74.8099" filterUnits="userSpaceOnUse" color-interpolation-filters="sRGB">
<feFlood flood-opacity="0" result="BackgroundImageFix"/>
<feBlend mode="normal" in="SourceGraphic" in2="BackgroundImageFix" result="shape"/>
<feGaussianBlur stdDeviation="7.5" result="effect1_foregroundBlur_321_3027"/>
</filter>
<filter id="filter4_f_321_3027" x="30.0917" y="116.355" width="81.3615" height="48.2158" filterUnits="userSpaceOnUse" color-interpolation-filters="sRGB">
<feFlood flood-opacity="0" result="BackgroundImageFix"/>
<feBlend mode="normal" in="SourceGraphic" in2="BackgroundImageFix" result="shape"/>
<feGaussianBlur stdDeviation="3.28812" result="effect1_foregroundBlur_321_3027"/>
</filter>
<filter id="filter5_f_321_3027" x="30.0917" y="109.052" width="81.3615" height="48.2158" filterUnits="userSpaceOnUse" color-interpolation-filters="sRGB">
<feFlood flood-opacity="0" result="BackgroundImageFix"/>
<feBlend mode="normal" in="SourceGraphic" in2="BackgroundImageFix" result="shape"/>
<feGaussianBlur stdDeviation="3.28812" result="effect1_foregroundBlur_321_3027"/>
</filter>
<filter id="filter6_i_321_3027" x="40.9248" y="117.888" width="62.4756" height="30.8157" filterUnits="userSpaceOnUse" color-interpolation-filters="sRGB">
<feFlood flood-opacity="0" result="BackgroundImageFix"/>
<feBlend mode="normal" in="SourceGraphic" in2="BackgroundImageFix" result="shape"/>
<feColorMatrix in="SourceAlpha" type="matrix" values="0 0 0 0 0 0 0 0 0 0 0 0 0 0 0 0 0 0 127 0" result="hardAlpha"/>
<feOffset dx="2.52932"/>
<feGaussianBlur stdDeviation="3.79398"/>
<feComposite in2="hardAlpha" operator="arithmetic" k2="-1" k3="1"/>
<feColorMatrix type="matrix" values="0 0 0 0 0.879801 0 0 0 0 0.927881 0 0 0 0 1 0 0 0 0.61 0"/>
<feBlend mode="normal" in2="shape" result="effect1_innerShadow_321_3027"/>
</filter>
<filter id="filter7_i_321_3027" x="70.8979" y="133.296" width="32.5025" height="20.3339" filterUnits="userSpaceOnUse" color-interpolation-filters="sRGB">
<feFlood flood-opacity="0" result="BackgroundImageFix"/>
<feBlend mode="normal" in="SourceGraphic" in2="BackgroundImageFix" result="shape"/>
<feColorMatrix in="SourceAlpha" type="matrix" values="0 0 0 0 0 0 0 0 0 0 0 0 0 0 0 0 0 0 127 0" result="hardAlpha"/>
<feOffset dx="2.52932"/>
<feGaussianBlur stdDeviation="3.79398"/>
<feComposite in2="hardAlpha" operator="arithmetic" k2="-1" k3="1"/>
<feColorMatrix type="matrix" values="0 0 0 0 0.879801 0 0 0 0 0.927881 0 0 0 0 1 0 0 0 0.61 0"/>
<feBlend mode="normal" in2="shape" result="effect1_innerShadow_321_3027"/>
</filter>
<filter id="filter8_i_321_3027" x="40.9248" y="133.296" width="32.5025" height="20.3339" filterUnits="userSpaceOnUse" color-interpolation-filters="sRGB">
<feFlood flood-opacity="0" result="BackgroundImageFix"/>
<feBlend mode="normal" in="SourceGraphic" in2="BackgroundImageFix" result="shape"/>
<feColorMatrix in="SourceAlpha" type="matrix" values="0 0 0 0 0 0 0 0 0 0 0 0 0 0 0 0 0 0 127 0" result="hardAlpha"/>
<feOffset dx="2.52932"/>
<feGaussianBlur stdDeviation="3.79398"/>
<feComposite in2="hardAlpha" operator="arithmetic" k2="-1" k3="1"/>
<feColorMatrix type="matrix" values="0 0 0 0 0.879801 0 0 0 0 0.927881 0 0 0 0 1 0 0 0 0.61 0"/>
<feBlend mode="normal" in2="shape" result="effect1_innerShadow_321_3027"/>
</filter>
<filter id="filter9_i_321_3027" x="53.3389" y="83.438" width="38.8824" height="54.243" filterUnits="userSpaceOnUse" color-interpolation-filters="sRGB">
<feFlood flood-opacity="0" result="BackgroundImageFix"/>
<feBlend mode="normal" in="SourceGraphic" in2="BackgroundImageFix" result="shape"/>
<feColorMatrix in="SourceAlpha" type="matrix" values="0 0 0 0 0 0 0 0 0 0 0 0 0 0 0 0 0 0 127 0" result="hardAlpha"/>
<feOffset dx="2.52932"/>
<feGaussianBlur stdDeviation="4.55278"/>
<feComposite in2="hardAlpha" operator="arithmetic" k2="-1" k3="1"/>
<feColorMatrix type="matrix" values="0 0 0 0 0.879801 0 0 0 0 0.927881 0 0 0 0 1 0 0 0 0.9 0"/>
<feBlend mode="normal" in2="shape" result="effect1_innerShadow_321_3027"/>
</filter>
<filter id="filter10_d_321_3027" x="0.814453" y="53.8409" width="39.8109" height="52.7767" filterUnits="userSpaceOnUse" color-interpolation-filters="sRGB">
<feFlood flood-opacity="0" result="BackgroundImageFix"/>
<feColorMatrix in="SourceAlpha" type="matrix" values="0 0 0 0 0 0 0 0 0 0 0 0 0 0 0 0 0 0 127 0" result="hardAlpha"/>
<feOffset dx="7.35" dy="-2"/>
<feGaussianBlur stdDeviation="3.29854"/>
<feComposite in2="hardAlpha" operator="out"/>
<feColorMatrix type="matrix" values="0 0 0 0 0.0705882 0 0 0 0 0.423529 0 0 0 0 0.976471 0 0 0 0.29 0"/>
<feBlend mode="normal" in2="BackgroundImageFix" result="effect1_dropShadow_321_3027"/>
<feBlend mode="normal" in="SourceGraphic" in2="effect1_dropShadow_321_3027" result="shape"/>
</filter>
<filter id="filter11_di_321_3027" x="0.814453" y="65.7938" width="26.2145" height="34.5517" filterUnits="userSpaceOnUse" color-interpolation-filters="sRGB">
<feFlood flood-opacity="0" result="BackgroundImageFix"/>
<feColorMatrix in="SourceAlpha" type="matrix" values="0 0 0 0 0 0 0 0 0 0 0 0 0 0 0 0 0 0 127 0" result="hardAlpha"/>
<feOffset dx="3.36146" dy="-1.68073"/>
<feComposite in2="hardAlpha" operator="out"/>
<feColorMatrix type="matrix" values="0 0 0 0 0.12549 0 0 0 0 0.462745 0 0 0 0 0.984314 0 0 0 1 0"/>
<feBlend mode="normal" in2="BackgroundImageFix" result="effect1_dropShadow_321_3027"/>
<feBlend mode="normal" in="SourceGraphic" in2="effect1_dropShadow_321_3027" result="shape"/>
<feColorMatrix in="SourceAlpha" type="matrix" values="0 0 0 0 0 0 0 0 0 0 0 0 0 0 0 0 0 0 127 0" result="hardAlpha"/>
<feOffset dy="3.36146"/>
<feGaussianBlur stdDeviation="2.5"/>
<feComposite in2="hardAlpha" operator="arithmetic" k2="-1" k3="1"/>
<feColorMatrix type="matrix" values="0 0 0 0 0.301961 0 0 0 0 0.560784 0 0 0 0 0.968627 0 0 0 0.8 0"/>
<feBlend mode="normal" in2="shape" result="effect2_innerShadow_321_3027"/>
</filter>
<radialGradient id="paint0_radial_321_3027" cx="0" cy="0" r="1" gradientUnits="userSpaceOnUse" gradientTransform="translate(13.1942 13.1942) rotate(90) scale(13.1942)">
<stop offset="0.41" stop-color="white"/>
</radialGradient>
</defs>
</svg>
