<svg width="24" height="24" fill="none" xmlns="http://www.w3.org/2000/svg"><path d="M18 10.333V6.045A.045.045 0 0017.955 6h-1.91a.045.045 0 00-.045.045v12.91c0 .025.02.045.045.045h1.91c.025 0 .045-.02.045-.045v-8.622z" fill="#06F" stroke="#06F" stroke-width="1.5" stroke-linecap="round"/><path d="M10 11H6.045a.045.045 0 00-.045.045v1.91c0 .025.02.045.045.045h11.91c.025 0 .045-.02.045-.045v-1.91a.045.045 0 00-.045-.045H10z" fill="#06F" stroke="#06F" stroke-width="1.5" stroke-linecap="round"/><path d="M8 10.333V6.045A.045.045 0 007.955 6h-1.91A.045.045 0 006 6.045v12.91c0 .025.02.045.045.045h1.91c.025 0 .045-.02.045-.045v-8.622z" fill="#06F" stroke="#06F" stroke-width="1.5" stroke-linecap="round"/></svg>