<svg width="24" height="24" fill="none" xmlns="http://www.w3.org/2000/svg"><path d="M6.5 9.197H5.045A.045.045 0 005 9.242v7.516c0 .025.02.045.045.045H6.5m0-7.606h1.455c.025 0 .045.02.045.045v7.516c0 .025-.02.045-.045.045H6.5m0-7.606V6m0 14v-3.197m12-3.748h-1.455A.045.045 0 0017 13.1v4.8c0 .025.02.045.045.045H18.5m0-4.89h1.455c.025 0 .045.02.045.045v4.8c0 .025-.02.045-.045.045H18.5m0-4.89V11m0 9v-2.055" stroke="#595959" stroke-width="1.5" stroke-linecap="round"/><path d="M14 7.913V5.785a.045.045 0 00-.045-.045h-2.91a.045.045 0 00-.045.045v6.43c0 .025.02.045.045.045h2.91c.025 0 .045-.02.045-.045V7.913z" fill="#06F"/><path d="M12.5 5.74h-1.455a.045.045 0 00-.045.045v6.43c0 .025.02.045.045.045H12.5m0-6.52h1.455c.025 0 .045.02.045.045v6.43c0 .025-.02.045-.045.045H12.5m0-6.52V3m0 12v-2.74" stroke="#06F" stroke-width="1.5" stroke-linecap="round"/></svg>